<svg xmlns="http://www.w3.org/2000/svg" xmlns:xlink="http://www.w3.org/1999/xlink" width="500" zoomAndPan="magnify" viewBox="0 0 375 135.000003" height="180" preserveAspectRatio="xMidYMid meet" version="1.0"><defs><filter x="0%" y="0%" width="100%" height="100%" id="id1"><feColorMatrix values="0 0 0 0 1 0 0 0 0 1 0 0 0 0 1 0 0 0 1 0" color-interpolation-filters="sRGB"/></filter><g/><mask id="id2"><g filter="url(#id1)"><rect x="-37.5" width="450" fill="#000000" y="-13.5" height="162.000004" fill-opacity="0.7686"/></g></mask><clipPath id="id3"><rect x="0" width="115" y="0" height="18"/></clipPath><mask id="id4"><g filter="url(#id1)"><rect x="-37.5" width="450" fill="#000000" y="-13.5" height="162.000004" fill-opacity="0.6863"/></g></mask><clipPath id="id5"><path d="M 1 1 L 212.945312 1 L 212.945312 2 L 1 2 Z M 1 1 " clip-rule="nonzero"/></clipPath><clipPath id="id6"><rect x="0" width="213" y="0" height="3"/></clipPath></defs><g fill="#ffffff" fill-opacity="1"><g transform="translate(14.605205, 62.773117)"><g><path d="M 7.898438 -18.484375 C 8.402344 -23.441406 13.148438 -26.925781 17.683594 -27.722656 C 18.316406 -27.808594 18.945312 -27.890625 19.574219 -27.890625 C 21.757812 -27.890625 23.734375 -27.179688 24.65625 -25.371094 C 24.992188 -24.867188 25.121094 -23.480469 25.496094 -25.078125 C 25.328125 -27.515625 22.515625 -29.445312 18.945312 -29.445312 C 18.484375 -29.445312 18.019531 -29.445312 17.558594 -29.363281 C 11.929688 -28.648438 6.554688 -24.28125 6.257812 -18.609375 C 6.050781 -15.121094 7.308594 -12.433594 9.367188 -10.542969 L 8.78125 -10.207031 C 5.292969 -8.191406 1.972656 -4.160156 1.972656 0.125 C 1.972656 1.300781 2.226562 2.519531 2.8125 3.695312 C 5.292969 8.359375 10.375 10.332031 16.257812 10.332031 C 24.785156 10.332031 31.714844 3.824219 31.421875 0.503906 C 31.421875 0.125 30.957031 -0.292969 30.832031 0 C 29.40625 4.117188 22.515625 8.441406 15.792969 8.652344 C 11.089844 8.78125 6.007812 7.226562 4.160156 3.613281 C 3.695312 2.6875 3.488281 1.679688 3.488281 0.671875 C 3.488281 -3.109375 6.425781 -7.097656 9.914062 -9.074219 L 10.753906 -9.492188 C 12.769531 -8.148438 15.25 -7.308594 17.8125 -7.058594 C 20.121094 -6.847656 23.816406 -7.5625 22.726562 -10.207031 C 22.011719 -11.929688 19.363281 -12.6875 16.425781 -12.519531 C 14.492188 -12.390625 12.476562 -11.847656 10.796875 -11.171875 C 8.820312 -12.9375 7.601562 -15.457031 7.898438 -18.484375 Z M 16.464844 -11.089844 C 19.195312 -11.339844 21.632812 -10.710938 21.550781 -9.367188 C 21.464844 -8.273438 18.398438 -8.316406 17.894531 -8.359375 C 15.878906 -8.402344 13.902344 -9.03125 12.222656 -10.082031 C 13.527344 -10.542969 14.996094 -10.921875 16.464844 -11.089844 Z M 16.464844 -11.089844 "/></g></g></g><g fill="#ffffff" fill-opacity="1"><g transform="translate(47.574142, 62.773117)"><g><path d="M 7.265625 -1.511719 L 6.21875 -0.757812 C 1.972656 2.394531 -1.386719 6.59375 -2.015625 9.828125 C -2.226562 11.339844 -1.554688 12.855469 -0.421875 14.03125 C 0.757812 15.207031 2.4375 15.878906 3.488281 15.667969 C 7.140625 14.914062 8.273438 9.15625 8.613281 3.863281 L 8.738281 -0.0429688 L 8.78125 -0.546875 L 9.996094 -1.386719 C 11.761719 -2.4375 14.535156 -3.949219 16.214844 -4.453125 C 16.550781 -4.535156 16.59375 -4.621094 16.214844 -4.957031 C 15.25 -5.839844 9.914062 -3.234375 8.78125 -2.5625 L 8.738281 -2.519531 L 8.738281 -2.6875 C 8.695312 -5.125 8.484375 -6.847656 8.441406 -6.929688 C 8.402344 -7.394531 7.6875 -7.898438 7.265625 -7.898438 C 7.097656 -7.898438 6.929688 -7.855469 6.890625 -7.769531 C 6.847656 -7.730469 6.804688 -7.730469 6.890625 -7.6875 C 6.847656 -7.644531 6.761719 -7.601562 6.761719 -7.519531 C 6.679688 -6.175781 2.984375 -1.261719 1.21875 -2.269531 C 0.503906 -2.6875 0.421875 -3.90625 0.335938 -4.578125 C 0.378906 -5.167969 0.503906 -5.710938 0.589844 -6.132812 C 0.796875 -6.554688 1.007812 -6.804688 1.175781 -6.847656 C 1.386719 -6.929688 1.386719 -7.308594 1.050781 -7.644531 C 0.714844 -7.980469 0.253906 -8.148438 0 -8.066406 C -0.421875 -7.9375 -0.671875 -7.519531 -0.839844 -7.058594 C -1.050781 -6.511719 -1.132812 -5.921875 -1.132812 -5.335938 C -1.132812 -4.621094 -0.964844 -3.90625 -0.757812 -3.320312 C -0.210938 -1.972656 1.132812 -0.925781 2.519531 -0.925781 C 3.90625 -0.925781 5.839844 -2.605469 7.058594 -4.242188 Z M 2.351562 14.410156 C 1.847656 14.535156 1.050781 14.199219 0.421875 13.609375 C -0.0859375 13.023438 -0.714844 11.972656 -0.460938 10.667969 C 0 7.855469 2.855469 4.453125 6.257812 1.34375 L 7.226562 0.460938 C 7.265625 6.34375 5.542969 13.777344 2.351562 14.410156 Z M 2.351562 14.410156 "/></g></g></g><g fill="#ffffff" fill-opacity="1"><g transform="translate(63.533624, 62.773117)"><g><path d="M 4.578125 -0.378906 C 7.476562 -0.546875 10.164062 -2.605469 11.339844 -5.039062 C 11.929688 -6.21875 12.097656 -7.183594 11.132812 -6.175781 C 9.367188 -4.328125 6.425781 -1.386719 2.476562 -1.386719 C 1.007812 -1.386719 -0.460938 -2.730469 -0.589844 -3.527344 C 0.882812 -3.527344 2.6875 -4.535156 3.234375 -5.882812 C 3.695312 -7.097656 2.476562 -8.359375 1.175781 -8.359375 C -0.882812 -8.273438 -2.140625 -6.386719 -2.140625 -4.535156 C -2.140625 -4.117188 -2.058594 -3.695312 -1.933594 -3.320312 C -1.09375 -0.714844 2.101562 -0.253906 4.578125 -0.378906 Z M 1.847656 -6.929688 C 2.308594 -6.46875 1.132812 -5.335938 -0.628906 -4.535156 C -0.671875 -5.585938 0.964844 -7.8125 1.847656 -6.929688 Z M 1.847656 -6.929688 "/></g></g></g><g fill="#ffffff" fill-opacity="1"><g transform="translate(75.545235, 62.773117)"><g/></g></g><g fill="#ffffff" fill-opacity="1"><g transform="translate(88.060827, 62.773117)"><g><path d="M 2.015625 14.199219 C 2.984375 14.703125 3.695312 14.617188 4.160156 14.28125 C 4.621094 13.945312 5.039062 13.359375 5.292969 12.601562 C 5.753906 11.425781 5.964844 9.789062 5.964844 7.980469 C 5.964844 7.476562 5.964844 6.972656 5.921875 6.425781 C 5.753906 3.992188 5.125 1.386719 3.949219 -0.925781 C 3.277344 -2.058594 2.605469 -3.152344 1.636719 -4.074219 L 0.925781 -4.664062 L 1.300781 -4.621094 C 1.636719 -4.578125 2.183594 -4.578125 2.855469 -4.578125 C 4.703125 -4.578125 7.476562 -4.703125 8.695312 -5.082031 C 10.375 -5.628906 10.332031 -6.59375 9.492188 -6.34375 C 8.738281 -6.050781 1.132812 -5.839844 0.628906 -5.882812 L 0.460938 -5.882812 L 0.421875 -6.132812 C 0.503906 -8.613281 1.175781 -16.761719 1.429688 -18.441406 C 1.511719 -18.691406 1.21875 -19.113281 0.796875 -19.324219 C 0.421875 -19.53125 0.0429688 -19.53125 0 -19.28125 C -0.335938 -17.558594 -1.007812 -9.367188 -1.050781 -6.847656 L -1.007812 -6.050781 L -2.058594 -6.257812 C -2.941406 -6.46875 -2.605469 -5.375 -1.722656 -5.125 L -1.007812 -4.789062 C -1.132812 -3.066406 -1.261719 -0.796875 -1.261719 1.597656 C -1.261719 6.511719 -0.671875 11.929688 1.890625 14.113281 C 1.933594 14.15625 1.972656 14.199219 2.015625 14.199219 Z M 3.90625 11.761719 C 3.402344 13.273438 2.6875 13.441406 2.269531 13.191406 L 2.351562 13.230469 L 2.226562 13.0625 C 0.503906 10.921875 0.0429688 6.34375 0.0429688 2.140625 C 0.0429688 -0.125 0.167969 -2.308594 0.335938 -3.863281 L 0.796875 -3.527344 C 1.46875 -2.8125 2.140625 -1.933594 2.6875 -0.925781 C 3.738281 1.132812 4.285156 3.570312 4.453125 5.882812 C 4.496094 6.511719 4.535156 7.183594 4.535156 7.769531 C 4.535156 9.367188 4.328125 10.753906 3.90625 11.761719 Z M 3.90625 11.761719 "/></g></g></g><g fill="#ffffff" fill-opacity="1"><g transform="translate(97.426524, 62.773117)"><g><path d="M 11.171875 -5.964844 C 12.183594 -6.300781 12.476562 -6.847656 11.257812 -6.804688 C 10.878906 -6.804688 9.242188 -6.636719 7.265625 -6.636719 C 6.300781 -6.636719 5.207031 -6.679688 4.160156 -6.804688 C 3.527344 -7.5625 2.605469 -8.105469 1.46875 -8.273438 C 0.628906 -8.316406 0.335938 -7.855469 0.167969 -7.265625 C 0.0859375 -7.265625 0.0429688 -7.226562 -0.0429688 -7.226562 C -1.007812 -6.890625 -2.101562 -4.871094 -1.804688 -3.109375 C -1.597656 -1.933594 -0.546875 -0.628906 1.007812 -0.546875 C 2.941406 -0.421875 4.664062 -1.46875 5.039062 -3.570312 C 5.167969 -4.199219 5.125 -4.832031 4.957031 -5.375 C 7.519531 -5.25 10.25 -5.628906 11.171875 -5.964844 Z M 0.796875 -6.300781 L 0.882812 -6.386719 C 1.46875 -6.007812 2.269531 -5.753906 3.234375 -5.585938 C 3.90625 -4.074219 2.984375 -1.679688 1.132812 -1.597656 C 0.335938 -1.554688 -0.125 -2.015625 -0.335938 -3.234375 C -0.546875 -4.410156 0.253906 -5.882812 0.796875 -6.300781 Z M 0.796875 -6.300781 "/></g></g></g><g fill="#ffffff" fill-opacity="1"><g transform="translate(109.228138, 62.773117)"><g><path d="M -1.050781 -1.261719 C -0.882812 -0.628906 0.503906 -0.0859375 0.460938 -0.628906 C 0.628906 -1.847656 0.628906 -2.101562 0.757812 -2.4375 C 1.765625 -5.335938 5.25 -7.898438 7.351562 -7.855469 L 7.308594 -7.519531 C 7.265625 -7.183594 7.855469 -6.929688 8.441406 -7.601562 C 8.738281 -7.9375 8.148438 -8.820312 7.183594 -8.988281 C 4.871094 -9.367188 1.765625 -6.929688 0.714844 -5.585938 L 0.757812 -7.226562 C 0.757812 -7.476562 0.503906 -7.898438 0.125 -8.105469 C -0.292969 -8.316406 -0.714844 -8.316406 -0.714844 -8.023438 C -1.300781 -2.730469 -1.21875 -1.636719 -1.050781 -1.261719 Z M -1.050781 -1.261719 "/></g></g></g><g fill="#ffffff" fill-opacity="1"><g transform="translate(120.903766, 62.773117)"><g/></g></g><g fill="#ffffff" fill-opacity="1"><g transform="translate(133.419358, 62.773117)"><g><path d="M 24.617188 -31.210938 C 24.742188 -31.421875 24.449219 -31.757812 23.984375 -31.96875 C 23.523438 -32.21875 23.105469 -32.175781 23.019531 -31.925781 C 22.851562 -31.503906 22.597656 -29.070312 22.390625 -26.632812 C 21.085938 -26.800781 19.785156 -26.882812 18.523438 -26.882812 C 17.726562 -26.882812 16.96875 -26.882812 16.257812 -26.800781 C 8.023438 -26.171875 0.882812 -21.96875 0.882812 -15.625 C 0.882812 -14.785156 1.007812 -13.902344 1.261719 -12.980469 C 2.941406 -7.394531 9.242188 -2.730469 15.25 -3.152344 C 17.558594 -3.359375 18.148438 -4.789062 16.59375 -4.328125 C 16.214844 -4.199219 15.710938 -4.03125 15.207031 -3.992188 C 9.746094 -3.65625 4.160156 -8.191406 2.855469 -12.558594 C 2.605469 -13.441406 2.476562 -14.28125 2.476562 -15.082031 C 2.476562 -21.085938 9.410156 -24.992188 17.222656 -25.582031 C 17.980469 -25.625 18.734375 -25.664062 19.53125 -25.664062 C 20.457031 -25.664062 21.382812 -25.625 22.304688 -25.539062 C 22.179688 -24.238281 22.09375 -22.976562 22.054688 -22.179688 C 21.71875 -16.632812 21.253906 -7.351562 21.171875 -1.34375 L 21.171875 0.378906 C 17.683594 2.269531 16.339844 3.738281 15.835938 5.039062 C 15.585938 6.050781 15.753906 7.058594 16.507812 7.980469 C 16.800781 8.316406 17.265625 8.738281 17.726562 9.03125 C 19.15625 10.082031 21.171875 10.542969 23.3125 10.542969 C 23.734375 10.542969 24.152344 10.542969 24.574219 10.5 C 25.582031 10.460938 26.632812 10.292969 27.515625 10.039062 C 31.292969 9.199219 35.242188 7.265625 38.015625 4.367188 C 40.199219 2.183594 41.753906 -0.546875 42.636719 -3.488281 L 42.71875 -3.949219 L 44.484375 -4.242188 L 50.617188 -5.039062 C 50.953125 -5.082031 50.996094 -5.125 50.785156 -5.417969 C 50.574219 -5.628906 50.070312 -5.839844 48.601562 -5.839844 C 47.425781 -5.839844 45.703125 -5.710938 43.015625 -5.335938 L 43.140625 -6.21875 C 43.226562 -6.804688 43.226562 -7.433594 43.226562 -8.023438 C 43.226562 -11.46875 42.089844 -14.996094 39.484375 -18.1875 C 35.875 -22.515625 29.824219 -25.289062 23.945312 -26.378906 C 24.113281 -28.4375 24.320312 -30.496094 24.617188 -31.210938 Z M 38.183594 -18.1875 C 40.578125 -15.121094 41.671875 -11.679688 41.671875 -8.316406 C 41.671875 -7.226562 41.542969 -6.132812 41.335938 -5.082031 L 41.292969 -5.082031 L 41.039062 -5 C 32.808594 -3.613281 26.800781 -1.972656 22.726562 -0.253906 C 22.765625 -0.378906 22.726562 -0.503906 22.726562 -0.628906 C 22.726562 -6.59375 23.273438 -15.457031 23.691406 -21.675781 C 23.734375 -22.390625 23.777344 -23.777344 23.902344 -25.328125 C 29.363281 -24.488281 34.738281 -22.09375 38.183594 -18.1875 Z M 22.472656 7.140625 C 22.726562 7.140625 22.9375 6.972656 22.851562 6.761719 L 22.808594 6.554688 C 22.726562 6.46875 22.640625 6.089844 22.640625 3.066406 L 22.640625 1.429688 C 26.339844 -0.292969 31.925781 -2.015625 39.863281 -3.488281 L 40.871094 -3.613281 L 40.789062 -3.402344 C 39.988281 -0.925781 38.519531 1.429688 36.628906 3.359375 C 33.816406 6.175781 29.992188 8.023438 26.421875 8.863281 C 25.328125 9.074219 24.40625 9.242188 23.480469 9.285156 C 22.765625 9.367188 22.011719 9.367188 21.464844 9.324219 C 20.035156 9.242188 19.027344 8.863281 18.398438 8.484375 C 17.601562 7.855469 17.136719 7.015625 17.476562 5.921875 C 17.726562 4.703125 19.027344 3.488281 21.214844 2.226562 C 21.339844 3.570312 21.171875 7.058594 22.472656 7.140625 Z M 22.472656 7.140625 "/></g></g></g><g fill="#ffffff" fill-opacity="1"><g transform="translate(184.53171, 62.773117)"><g><path d="M 4.578125 -0.378906 C 7.476562 -0.546875 10.164062 -2.605469 11.339844 -5.039062 C 11.929688 -6.21875 12.097656 -7.183594 11.132812 -6.175781 C 9.367188 -4.328125 6.425781 -1.386719 2.476562 -1.386719 C 1.007812 -1.386719 -0.460938 -2.730469 -0.589844 -3.527344 C 0.882812 -3.527344 2.6875 -4.535156 3.234375 -5.882812 C 3.695312 -7.097656 2.476562 -8.359375 1.175781 -8.359375 C -0.882812 -8.273438 -2.140625 -6.386719 -2.140625 -4.535156 C -2.140625 -4.117188 -2.058594 -3.695312 -1.933594 -3.320312 C -1.09375 -0.714844 2.101562 -0.253906 4.578125 -0.378906 Z M 1.847656 -6.929688 C 2.308594 -6.46875 1.132812 -5.335938 -0.628906 -4.535156 C -0.671875 -5.585938 0.964844 -7.8125 1.847656 -6.929688 Z M 1.847656 -6.929688 "/></g></g></g><g fill="#ffffff" fill-opacity="1"><g transform="translate(196.543321, 62.773117)"><g><path d="M -0.503906 11.089844 C -0.210938 11.972656 1.09375 12.855469 0.964844 11.886719 C 0.421875 9.914062 0.253906 5.796875 0.253906 1.511719 C 0.253906 -2.308594 0.378906 -6.257812 0.421875 -8.949219 L 0.714844 -16.003906 C 1.050781 -16.003906 1.34375 -16.046875 1.679688 -16.089844 C 4.871094 -16.339844 9.789062 -16.761719 14.28125 -16.761719 C 16.800781 -16.761719 19.15625 -16.632812 21.046875 -16.257812 C 21.382812 -16.214844 21.589844 -16.382812 21.550781 -16.71875 C 21.382812 -16.96875 20.960938 -17.390625 20.582031 -17.558594 C 19.070312 -17.894531 16.886719 -18.019531 14.492188 -18.019531 C 10.375 -18.019531 5.585938 -17.644531 2.015625 -17.390625 C 1.597656 -17.347656 1.175781 -17.308594 0.796875 -17.308594 C 0.964844 -20.582031 1.21875 -23.859375 1.511719 -25.960938 C 1.386719 -26.800781 -0.253906 -27.050781 -0.210938 -26.378906 C -0.378906 -23.777344 -0.589844 -20.457031 -0.757812 -17.179688 C -5.921875 -16.761719 -8.90625 -16.425781 -11.886719 -15.878906 C -12.601562 -15.710938 -11.71875 -14.617188 -10.921875 -14.746094 C -7.5625 -15.332031 -4.285156 -15.585938 -0.796875 -15.878906 C -0.925781 -13.316406 -1.007812 -10.835938 -1.050781 -8.863281 C -1.09375 -7.226562 -1.132812 -4.957031 -1.132812 -2.519531 C -1.132812 3.109375 -0.964844 9.621094 -0.503906 11.089844 Z M -0.503906 11.089844 "/></g></g></g><g fill="#ffffff" fill-opacity="1"><g transform="translate(202.801123, 62.773117)"><g><path d="M -1.050781 -1.636719 C -0.589844 -1.34375 -0.0859375 -1.21875 0.460938 -1.21875 C 2.6875 -1.21875 5.460938 -3.359375 6.636719 -4.410156 C 7.183594 -2.898438 8.234375 -2.101562 9.621094 -1.765625 C 11.382812 -1.34375 14.28125 -2.6875 15.332031 -3.738281 C 17.644531 -6.050781 17.011719 -7.097656 16.296875 -6.386719 C 14.785156 -4.703125 11.171875 -2.5625 9.03125 -2.984375 C 8.273438 -3.191406 8.066406 -4.03125 8.105469 -4.746094 C 8.191406 -5.542969 8.570312 -6.300781 8.78125 -6.929688 C 9.074219 -7.433594 7.644531 -8.359375 7.394531 -7.898438 L 6.679688 -6.929688 L 6.636719 -6.929688 C 5.585938 -7.394531 4.410156 -7.644531 3.234375 -7.644531 C 1.765625 -7.644531 0.335938 -7.265625 -0.796875 -6.511719 C -1.847656 -5.796875 -2.308594 -4.871094 -2.308594 -3.949219 C -2.308594 -3.066406 -1.890625 -2.269531 -1.050781 -1.636719 Z M -0.292969 -2.5625 C -0.925781 -2.605469 -1.175781 -3.066406 -1.050781 -3.570312 C -0.589844 -5.503906 2.183594 -6.300781 4.285156 -6.300781 C 4.914062 -6.300781 5.503906 -6.21875 5.921875 -6.089844 C 4.453125 -4.535156 1.722656 -2.8125 -0.292969 -2.5625 Z M -0.292969 -2.5625 "/></g></g></g><g fill="#ffffff" fill-opacity="1"><g transform="translate(219.60057, 62.773117)"><g><path d="M -0.671875 -1.847656 C 0.125 -0.964844 1.261719 -0.714844 2.308594 -0.757812 C 5.207031 -0.882812 9.03125 -4.199219 9.828125 -5.671875 C 10.332031 -6.59375 9.914062 -6.847656 9.746094 -6.679688 C 8.484375 -5.417969 4.03125 -2.058594 1.429688 -2.058594 C 0.964844 -2.058594 0.546875 -2.183594 0.210938 -2.4375 C -0.421875 -2.984375 0.421875 -7.730469 0.757812 -8.066406 C 0.796875 -8.273438 0.546875 -8.613281 0.0859375 -8.78125 C -0.421875 -8.90625 -0.839844 -8.863281 -0.882812 -8.652344 C -1.34375 -7.9375 -1.597656 -6.636719 -1.597656 -5.335938 C -1.597656 -3.949219 -1.300781 -2.519531 -0.671875 -1.847656 Z M 0.210938 -11.59375 C 0.589844 -11.382812 1.09375 -11.382812 1.21875 -11.550781 C 1.34375 -11.761719 1.679688 -12.6875 1.765625 -12.894531 C 1.890625 -13.148438 1.890625 -13.441406 1.890625 -13.609375 C 1.972656 -13.820312 1.636719 -14.15625 1.09375 -14.28125 C 0.671875 -14.449219 0.210938 -14.367188 0.210938 -14.113281 L 0.125 -13.484375 C 0.0429688 -13.273438 -0.253906 -12.433594 -0.335938 -12.308594 C -0.546875 -12.140625 -0.292969 -11.761719 0.210938 -11.59375 Z M 0.210938 -11.59375 "/></g></g></g><g fill="#ffffff" fill-opacity="1"><g transform="translate(229.722244, 62.773117)"><g><path d="M 2.984375 1.722656 C 5.628906 1.722656 8.988281 -2.8125 9.746094 -4.914062 C 9.914062 -5.417969 9.828125 -6.46875 9.410156 -5.882812 C 8.78125 -5.082031 3.695312 1.765625 1.511719 0.421875 C 0.589844 -0.210938 0.253906 -3.191406 0.253906 -6.929688 C 0.253906 -14.199219 1.46875 -24.28125 1.722656 -25.078125 C 1.722656 -25.289062 1.386719 -25.625 0.964844 -25.835938 C 0.546875 -26.003906 0.292969 -25.960938 0.253906 -25.707031 C -0.292969 -23.945312 -1.46875 -14.914062 -1.46875 -7.9375 C -1.46875 -4.453125 -1.175781 -1.46875 -0.378906 -0.210938 C 0.460938 0.964844 1.636719 1.722656 2.984375 1.722656 Z M 2.984375 1.722656 "/></g></g></g><g fill="#ffffff" fill-opacity="1"><g transform="translate(240.64, 62.773117)"><g/></g></g><g mask="url(#id2)"><g transform="matrix(1, 0, 0, 1, 250, 84)"><g clip-path="url(#id3)"><g fill="#ffffff" fill-opacity="1"><g transform="translate(1.090537, 13.859552)"><g><path d="M 1.28125 -9.0625 L 3.765625 -9.0625 C 4.890625 -9.0625 5.710938 -8.867188 6.234375 -8.484375 C 6.765625 -8.109375 7.03125 -7.535156 7.03125 -6.765625 C 7.03125 -6.242188 6.867188 -5.804688 6.546875 -5.453125 C 6.222656 -5.109375 5.753906 -4.882812 5.140625 -4.78125 L 5.140625 -4.75 C 5.867188 -4.644531 6.398438 -4.414062 6.734375 -4.0625 C 7.078125 -3.71875 7.25 -3.234375 7.25 -2.609375 C 7.25 -1.773438 6.972656 -1.128906 6.421875 -0.671875 C 5.867188 -0.222656 5.082031 0 4.0625 0 L 1.28125 0 Z M 1.921875 -5.03125 L 3.90625 -5.03125 C 4.757812 -5.03125 5.378906 -5.171875 5.765625 -5.453125 C 6.160156 -5.734375 6.359375 -6.175781 6.359375 -6.78125 C 6.359375 -7.382812 6.140625 -7.820312 5.703125 -8.09375 C 5.265625 -8.375 4.613281 -8.515625 3.75 -8.515625 L 1.921875 -8.515625 Z M 1.921875 -4.46875 L 1.921875 -0.5625 L 4.046875 -0.5625 C 5.722656 -0.5625 6.5625 -1.242188 6.5625 -2.609375 C 6.5625 -3.847656 5.675781 -4.46875 3.90625 -4.46875 Z M 1.921875 -4.46875 "/></g></g></g><g fill="#ffffff" fill-opacity="1"><g transform="translate(9.052382, 13.859552)"><g><path d="M 3.859375 0.125 C 2.867188 0.125 2.097656 -0.175781 1.546875 -0.78125 C 1.003906 -1.382812 0.734375 -2.226562 0.734375 -3.3125 C 0.734375 -4.394531 1 -5.257812 1.53125 -5.90625 C 2.0625 -6.550781 2.773438 -6.875 3.671875 -6.875 C 4.460938 -6.875 5.085938 -6.59375 5.546875 -6.03125 C 6.003906 -5.476562 6.234375 -4.726562 6.234375 -3.78125 L 6.234375 -3.28125 L 1.390625 -3.28125 C 1.390625 -2.351562 1.601562 -1.644531 2.03125 -1.15625 C 2.457031 -0.675781 3.066406 -0.4375 3.859375 -0.4375 C 4.234375 -0.4375 4.566406 -0.460938 4.859375 -0.515625 C 5.148438 -0.566406 5.519531 -0.679688 5.96875 -0.859375 L 5.96875 -0.296875 C 5.59375 -0.140625 5.242188 -0.03125 4.921875 0.03125 C 4.597656 0.09375 4.242188 0.125 3.859375 0.125 Z M 3.671875 -6.328125 C 3.023438 -6.328125 2.503906 -6.113281 2.109375 -5.6875 C 1.710938 -5.257812 1.484375 -4.640625 1.421875 -3.828125 L 5.59375 -3.828125 C 5.59375 -4.609375 5.421875 -5.21875 5.078125 -5.65625 C 4.742188 -6.101562 4.273438 -6.328125 3.671875 -6.328125 Z M 3.671875 -6.328125 "/></g></g></g><g fill="#ffffff" fill-opacity="1"><g transform="translate(16.022096, 13.859552)"><g><path d="M 0 -6.75 L 0.625 -6.75 L 2.0625 -2.953125 C 2.488281 -1.796875 2.765625 -1.015625 2.890625 -0.609375 L 2.921875 -0.609375 C 3.097656 -1.140625 3.378906 -1.9375 3.765625 -3 L 5.203125 -6.75 L 5.828125 -6.75 L 2.8125 1.09375 C 2.5625 1.726562 2.351562 2.15625 2.1875 2.375 C 2.03125 2.601562 1.835938 2.769531 1.609375 2.875 C 1.390625 2.988281 1.125 3.046875 0.8125 3.046875 C 0.570312 3.046875 0.3125 3.003906 0.03125 2.921875 L 0.03125 2.390625 C 0.269531 2.453125 0.523438 2.484375 0.796875 2.484375 C 1.003906 2.484375 1.1875 2.429688 1.34375 2.328125 C 1.507812 2.234375 1.65625 2.082031 1.78125 1.875 C 1.914062 1.664062 2.066406 1.332031 2.234375 0.875 C 2.410156 0.425781 2.523438 0.132812 2.578125 0 Z M 0 -6.75 "/></g></g></g><g fill="#ffffff" fill-opacity="1"><g transform="translate(21.850861, 13.859552)"><g><path d="M 6.703125 -3.375 C 6.703125 -2.28125 6.4375 -1.421875 5.90625 -0.796875 C 5.375 -0.179688 4.640625 0.125 3.703125 0.125 C 3.109375 0.125 2.582031 -0.015625 2.125 -0.296875 C 1.675781 -0.585938 1.332031 -1 1.09375 -1.53125 C 0.851562 -2.0625 0.734375 -2.675781 0.734375 -3.375 C 0.734375 -4.476562 1 -5.335938 1.53125 -5.953125 C 2.070312 -6.566406 2.804688 -6.875 3.734375 -6.875 C 4.660156 -6.875 5.382812 -6.5625 5.90625 -5.9375 C 6.4375 -5.3125 6.703125 -4.457031 6.703125 -3.375 Z M 1.390625 -3.375 C 1.390625 -2.445312 1.59375 -1.722656 2 -1.203125 C 2.40625 -0.691406 2.976562 -0.4375 3.71875 -0.4375 C 4.46875 -0.4375 5.046875 -0.691406 5.453125 -1.203125 C 5.859375 -1.722656 6.0625 -2.445312 6.0625 -3.375 C 6.0625 -4.3125 5.851562 -5.035156 5.4375 -5.546875 C 5.03125 -6.054688 4.453125 -6.3125 3.703125 -6.3125 C 2.960938 -6.3125 2.390625 -6.054688 1.984375 -5.546875 C 1.585938 -5.035156 1.390625 -4.3125 1.390625 -3.375 Z M 1.390625 -3.375 "/></g></g></g><g fill="#ffffff" fill-opacity="1"><g transform="translate(29.291838, 13.859552)"><g><path d="M 5.828125 0 L 5.828125 -4.375 C 5.828125 -5.050781 5.679688 -5.539062 5.390625 -5.84375 C 5.109375 -6.15625 4.671875 -6.3125 4.078125 -6.3125 C 3.265625 -6.3125 2.671875 -6.109375 2.296875 -5.703125 C 1.929688 -5.296875 1.75 -4.632812 1.75 -3.71875 L 1.75 0 L 1.125 0 L 1.125 -6.75 L 1.65625 -6.75 L 1.765625 -5.8125 L 1.8125 -5.8125 C 2.25 -6.519531 3.023438 -6.875 4.140625 -6.875 C 5.671875 -6.875 6.4375 -6.050781 6.4375 -4.40625 L 6.4375 0 Z M 5.828125 0 "/></g></g></g><g fill="#ffffff" fill-opacity="1"><g transform="translate(36.782421, 13.859552)"><g><path d="M 3.59375 -6.875 C 4.082031 -6.875 4.503906 -6.785156 4.859375 -6.609375 C 5.210938 -6.429688 5.53125 -6.125 5.8125 -5.6875 L 5.859375 -5.6875 C 5.828125 -6.207031 5.8125 -6.71875 5.8125 -7.21875 L 5.8125 -9.65625 L 6.421875 -9.65625 L 6.421875 0 L 6.015625 0 L 5.875 -1.03125 L 5.8125 -1.03125 C 5.300781 -0.257812 4.566406 0.125 3.609375 0.125 C 2.679688 0.125 1.96875 -0.160156 1.46875 -0.734375 C 0.976562 -1.316406 0.734375 -2.164062 0.734375 -3.28125 C 0.734375 -4.445312 0.976562 -5.335938 1.46875 -5.953125 C 1.957031 -6.566406 2.664062 -6.875 3.59375 -6.875 Z M 3.59375 -6.3125 C 2.863281 -6.3125 2.3125 -6.050781 1.9375 -5.53125 C 1.570312 -5.019531 1.390625 -4.269531 1.390625 -3.28125 C 1.390625 -1.375 2.128906 -0.421875 3.609375 -0.421875 C 4.367188 -0.421875 4.925781 -0.640625 5.28125 -1.078125 C 5.632812 -1.523438 5.8125 -2.257812 5.8125 -3.28125 L 5.8125 -3.375 C 5.8125 -4.414062 5.632812 -5.164062 5.28125 -5.625 C 4.9375 -6.082031 4.375 -6.3125 3.59375 -6.3125 Z M 3.59375 -6.3125 "/></g></g></g><g fill="#ffffff" fill-opacity="1"><g transform="translate(44.341219, 13.859552)"><g/></g></g><g fill="#ffffff" fill-opacity="1"><g transform="translate(47.640051, 13.859552)"><g><path d="M 2.90625 -0.421875 C 3.289062 -0.421875 3.628906 -0.453125 3.921875 -0.515625 L 3.921875 -0.03125 C 3.628906 0.0703125 3.285156 0.125 2.890625 0.125 C 2.296875 0.125 1.859375 -0.03125 1.578125 -0.34375 C 1.296875 -0.664062 1.15625 -1.171875 1.15625 -1.859375 L 1.15625 -6.203125 L 0.15625 -6.203125 L 0.15625 -6.5625 L 1.15625 -6.84375 L 1.46875 -8.375 L 1.78125 -8.375 L 1.78125 -6.75 L 3.765625 -6.75 L 3.765625 -6.203125 L 1.78125 -6.203125 L 1.78125 -1.9375 C 1.78125 -1.425781 1.867188 -1.046875 2.046875 -0.796875 C 2.234375 -0.546875 2.519531 -0.421875 2.90625 -0.421875 Z M 2.90625 -0.421875 "/></g></g></g><g fill="#ffffff" fill-opacity="1"><g transform="translate(51.89381, 13.859552)"><g><path d="M 5.828125 0 L 5.828125 -4.375 C 5.828125 -5.050781 5.679688 -5.539062 5.390625 -5.84375 C 5.109375 -6.15625 4.671875 -6.3125 4.078125 -6.3125 C 3.265625 -6.3125 2.671875 -6.109375 2.296875 -5.703125 C 1.929688 -5.296875 1.75 -4.632812 1.75 -3.71875 L 1.75 0 L 1.125 0 L 1.125 -9.65625 L 1.75 -9.65625 L 1.75 -6.578125 L 1.71875 -5.71875 L 1.75 -5.71875 C 2.007812 -6.125 2.328125 -6.414062 2.703125 -6.59375 C 3.085938 -6.78125 3.566406 -6.875 4.140625 -6.875 C 5.671875 -6.875 6.4375 -6.050781 6.4375 -4.40625 L 6.4375 0 Z M 5.828125 0 "/></g></g></g><g fill="#ffffff" fill-opacity="1"><g transform="translate(59.384393, 13.859552)"><g><path d="M 3.859375 0.125 C 2.867188 0.125 2.097656 -0.175781 1.546875 -0.78125 C 1.003906 -1.382812 0.734375 -2.226562 0.734375 -3.3125 C 0.734375 -4.394531 1 -5.257812 1.53125 -5.90625 C 2.0625 -6.550781 2.773438 -6.875 3.671875 -6.875 C 4.460938 -6.875 5.085938 -6.59375 5.546875 -6.03125 C 6.003906 -5.476562 6.234375 -4.726562 6.234375 -3.78125 L 6.234375 -3.28125 L 1.390625 -3.28125 C 1.390625 -2.351562 1.601562 -1.644531 2.03125 -1.15625 C 2.457031 -0.675781 3.066406 -0.4375 3.859375 -0.4375 C 4.234375 -0.4375 4.566406 -0.460938 4.859375 -0.515625 C 5.148438 -0.566406 5.519531 -0.679688 5.96875 -0.859375 L 5.96875 -0.296875 C 5.59375 -0.140625 5.242188 -0.03125 4.921875 0.03125 C 4.597656 0.09375 4.242188 0.125 3.859375 0.125 Z M 3.671875 -6.328125 C 3.023438 -6.328125 2.503906 -6.113281 2.109375 -5.6875 C 1.710938 -5.257812 1.484375 -4.640625 1.421875 -3.828125 L 5.59375 -3.828125 C 5.59375 -4.609375 5.421875 -5.21875 5.078125 -5.65625 C 4.742188 -6.101562 4.273438 -6.328125 3.671875 -6.328125 Z M 3.671875 -6.328125 "/></g></g></g><g fill="#ffffff" fill-opacity="1"><g transform="translate(66.354107, 13.859552)"><g/></g></g><g fill="#ffffff" fill-opacity="1"><g transform="translate(69.65294, 13.859552)"><g><path d="M 6.703125 -3.375 C 6.703125 -2.28125 6.4375 -1.421875 5.90625 -0.796875 C 5.375 -0.179688 4.640625 0.125 3.703125 0.125 C 3.109375 0.125 2.582031 -0.015625 2.125 -0.296875 C 1.675781 -0.585938 1.332031 -1 1.09375 -1.53125 C 0.851562 -2.0625 0.734375 -2.675781 0.734375 -3.375 C 0.734375 -4.476562 1 -5.335938 1.53125 -5.953125 C 2.070312 -6.566406 2.804688 -6.875 3.734375 -6.875 C 4.660156 -6.875 5.382812 -6.5625 5.90625 -5.9375 C 6.4375 -5.3125 6.703125 -4.457031 6.703125 -3.375 Z M 1.390625 -3.375 C 1.390625 -2.445312 1.59375 -1.722656 2 -1.203125 C 2.40625 -0.691406 2.976562 -0.4375 3.71875 -0.4375 C 4.46875 -0.4375 5.046875 -0.691406 5.453125 -1.203125 C 5.859375 -1.722656 6.0625 -2.445312 6.0625 -3.375 C 6.0625 -4.3125 5.851562 -5.035156 5.4375 -5.546875 C 5.03125 -6.054688 4.453125 -6.3125 3.703125 -6.3125 C 2.960938 -6.3125 2.390625 -6.054688 1.984375 -5.546875 C 1.585938 -5.035156 1.390625 -4.3125 1.390625 -3.375 Z M 1.390625 -3.375 "/></g></g></g><g fill="#ffffff" fill-opacity="1"><g transform="translate(77.093917, 13.859552)"><g><path d="M 3.96875 -6.875 C 4.914062 -6.875 5.628906 -6.578125 6.109375 -5.984375 C 6.585938 -5.390625 6.828125 -4.519531 6.828125 -3.375 C 6.828125 -2.257812 6.570312 -1.394531 6.0625 -0.78125 C 5.5625 -0.175781 4.859375 0.125 3.953125 0.125 C 3.472656 0.125 3.039062 0.0234375 2.65625 -0.171875 C 2.269531 -0.367188 1.96875 -0.648438 1.75 -1.015625 L 1.6875 -1.015625 L 1.515625 0 L 1.125 0 L 1.125 -9.65625 L 1.75 -9.65625 L 1.75 -7.21875 C 1.75 -6.863281 1.738281 -6.53125 1.71875 -6.21875 L 1.703125 -5.6875 L 1.75 -5.6875 C 2 -6.09375 2.304688 -6.390625 2.671875 -6.578125 C 3.035156 -6.773438 3.46875 -6.875 3.96875 -6.875 Z M 3.96875 -6.3125 C 3.164062 -6.3125 2.59375 -6.082031 2.25 -5.625 C 1.914062 -5.175781 1.75 -4.425781 1.75 -3.375 L 1.75 -3.28125 C 1.75 -2.257812 1.925781 -1.523438 2.28125 -1.078125 C 2.632812 -0.640625 3.191406 -0.421875 3.953125 -0.421875 C 4.691406 -0.421875 5.242188 -0.675781 5.609375 -1.1875 C 5.984375 -1.707031 6.171875 -2.441406 6.171875 -3.390625 C 6.171875 -5.335938 5.4375 -6.3125 3.96875 -6.3125 Z M 3.96875 -6.3125 "/></g></g></g><g fill="#ffffff" fill-opacity="1"><g transform="translate(84.652715, 13.859552)"><g><path d="M 2.609375 0 L 0 -6.75 L 0.625 -6.75 L 2.375 -2.15625 C 2.601562 -1.570312 2.773438 -1.0625 2.890625 -0.625 L 2.9375 -0.625 C 3.101562 -1.1875 3.273438 -1.703125 3.453125 -2.171875 L 5.203125 -6.75 L 5.828125 -6.75 L 3.21875 0 Z M 2.609375 0 "/></g></g></g><g fill="#ffffff" fill-opacity="1"><g transform="translate(90.481479, 13.859552)"><g><path d="M 1.75 0 L 1.125 0 L 1.125 -6.75 L 1.75 -6.75 Z M 1.046875 -8.609375 C 1.046875 -9.015625 1.175781 -9.21875 1.4375 -9.21875 C 1.5625 -9.21875 1.660156 -9.164062 1.734375 -9.0625 C 1.804688 -8.957031 1.84375 -8.804688 1.84375 -8.609375 C 1.84375 -8.429688 1.804688 -8.285156 1.734375 -8.171875 C 1.660156 -8.066406 1.5625 -8.015625 1.4375 -8.015625 C 1.175781 -8.015625 1.046875 -8.210938 1.046875 -8.609375 Z M 1.046875 -8.609375 "/></g></g></g><g fill="#ffffff" fill-opacity="1"><g transform="translate(93.352462, 13.859552)"><g><path d="M 6.703125 -3.375 C 6.703125 -2.28125 6.4375 -1.421875 5.90625 -0.796875 C 5.375 -0.179688 4.640625 0.125 3.703125 0.125 C 3.109375 0.125 2.582031 -0.015625 2.125 -0.296875 C 1.675781 -0.585938 1.332031 -1 1.09375 -1.53125 C 0.851562 -2.0625 0.734375 -2.675781 0.734375 -3.375 C 0.734375 -4.476562 1 -5.335938 1.53125 -5.953125 C 2.070312 -6.566406 2.804688 -6.875 3.734375 -6.875 C 4.660156 -6.875 5.382812 -6.5625 5.90625 -5.9375 C 6.4375 -5.3125 6.703125 -4.457031 6.703125 -3.375 Z M 1.390625 -3.375 C 1.390625 -2.445312 1.59375 -1.722656 2 -1.203125 C 2.40625 -0.691406 2.976562 -0.4375 3.71875 -0.4375 C 4.46875 -0.4375 5.046875 -0.691406 5.453125 -1.203125 C 5.859375 -1.722656 6.0625 -2.445312 6.0625 -3.375 C 6.0625 -4.3125 5.851562 -5.035156 5.4375 -5.546875 C 5.03125 -6.054688 4.453125 -6.3125 3.703125 -6.3125 C 2.960938 -6.3125 2.390625 -6.054688 1.984375 -5.546875 C 1.585938 -5.035156 1.390625 -4.3125 1.390625 -3.375 Z M 1.390625 -3.375 "/></g></g></g><g fill="#ffffff" fill-opacity="1"><g transform="translate(100.793439, 13.859552)"><g><path d="M 1.65625 -6.75 L 1.65625 -2.375 C 1.65625 -1.695312 1.796875 -1.203125 2.078125 -0.890625 C 2.367188 -0.585938 2.816406 -0.4375 3.421875 -0.4375 C 4.222656 -0.4375 4.8125 -0.640625 5.1875 -1.046875 C 5.5625 -1.453125 5.75 -2.109375 5.75 -3.015625 L 5.75 -6.75 L 6.359375 -6.75 L 6.359375 0 L 5.84375 0 L 5.734375 -0.9375 L 5.6875 -0.9375 C 5.25 -0.226562 4.472656 0.125 3.359375 0.125 C 1.816406 0.125 1.046875 -0.695312 1.046875 -2.34375 L 1.046875 -6.75 Z M 1.65625 -6.75 "/></g></g></g><g fill="#ffffff" fill-opacity="1"><g transform="translate(108.284022, 13.859552)"><g><path d="M 5.3125 -1.75 C 5.3125 -1.144531 5.082031 -0.679688 4.625 -0.359375 C 4.164062 -0.0351562 3.515625 0.125 2.671875 0.125 C 1.765625 0.125 1.046875 -0.015625 0.515625 -0.296875 L 0.515625 -0.953125 C 1.191406 -0.617188 1.910156 -0.453125 2.671875 -0.453125 C 3.335938 -0.453125 3.84375 -0.5625 4.1875 -0.78125 C 4.53125 -1 4.703125 -1.289062 4.703125 -1.65625 C 4.703125 -2 4.5625 -2.285156 4.28125 -2.515625 C 4.007812 -2.742188 3.5625 -2.972656 2.9375 -3.203125 C 2.257812 -3.441406 1.785156 -3.648438 1.515625 -3.828125 C 1.242188 -4.003906 1.035156 -4.203125 0.890625 -4.421875 C 0.753906 -4.640625 0.6875 -4.910156 0.6875 -5.234375 C 0.6875 -5.734375 0.894531 -6.128906 1.3125 -6.421875 C 1.738281 -6.722656 2.332031 -6.875 3.09375 -6.875 C 3.820312 -6.875 4.515625 -6.738281 5.171875 -6.46875 L 4.9375 -5.90625 C 4.28125 -6.175781 3.664062 -6.3125 3.09375 -6.3125 C 2.550781 -6.3125 2.117188 -6.21875 1.796875 -6.03125 C 1.472656 -5.851562 1.3125 -5.601562 1.3125 -5.28125 C 1.3125 -4.925781 1.4375 -4.644531 1.6875 -4.4375 C 1.9375 -4.226562 2.425781 -3.992188 3.15625 -3.734375 C 3.757812 -3.515625 4.195312 -3.316406 4.46875 -3.140625 C 4.75 -2.960938 4.957031 -2.757812 5.09375 -2.53125 C 5.238281 -2.3125 5.3125 -2.050781 5.3125 -1.75 Z M 5.3125 -1.75 "/></g></g></g></g></g></g><g fill="#ffffff" fill-opacity="1"><g transform="translate(251.04983, 65.365154)"><g><path d="M 1.828125 0 L 1.828125 -14.578125 L 7.859375 -14.578125 C 8.492188 -14.578125 9.070312 -14.441406 9.59375 -14.171875 C 10.125 -13.910156 10.578125 -13.5625 10.953125 -13.125 C 11.335938 -12.695312 11.640625 -12.207031 11.859375 -11.65625 C 12.085938 -11.113281 12.203125 -10.5625 12.203125 -10 C 12.203125 -9.394531 12.097656 -8.816406 11.890625 -8.265625 C 11.679688 -7.710938 11.390625 -7.222656 11.015625 -6.796875 C 10.648438 -6.367188 10.210938 -6.023438 9.703125 -5.765625 C 9.191406 -5.503906 8.617188 -5.375 7.984375 -5.375 L 3.265625 -5.375 L 3.265625 0 Z M 3.265625 -6.65625 L 7.921875 -6.65625 C 8.347656 -6.65625 8.734375 -6.742188 9.078125 -6.921875 C 9.429688 -7.109375 9.726562 -7.351562 9.96875 -7.65625 C 10.21875 -7.96875 10.410156 -8.328125 10.546875 -8.734375 C 10.691406 -9.140625 10.765625 -9.5625 10.765625 -10 C 10.765625 -10.445312 10.679688 -10.875 10.515625 -11.28125 C 10.359375 -11.6875 10.144531 -12.039062 9.875 -12.34375 C 9.613281 -12.644531 9.300781 -12.878906 8.9375 -13.046875 C 8.570312 -13.210938 8.191406 -13.296875 7.796875 -13.296875 L 3.265625 -13.296875 Z M 3.265625 -6.65625 "/></g></g></g><g fill="#ffffff" fill-opacity="1"><g transform="translate(263.816599, 65.365154)"><g><path d="M 6.875 -9.46875 C 5.9375 -9.4375 5.113281 -9.175781 4.40625 -8.6875 C 3.707031 -8.195312 3.21875 -7.519531 2.9375 -6.65625 L 2.9375 0 L 1.546875 0 L 1.546875 -10.703125 L 2.859375 -10.703125 L 2.859375 -8.125 C 3.253906 -8.945312 3.785156 -9.59375 4.453125 -10.0625 C 5.128906 -10.53125 5.847656 -10.765625 6.609375 -10.765625 C 6.722656 -10.765625 6.8125 -10.753906 6.875 -10.734375 Z M 6.875 -9.46875 "/></g></g></g><g fill="#ffffff" fill-opacity="1"><g transform="translate(271.020995, 65.365154)"><g><path d="M 6.09375 0.203125 C 5.3125 0.203125 4.597656 0.0546875 3.953125 -0.234375 C 3.316406 -0.523438 2.757812 -0.925781 2.28125 -1.4375 C 1.8125 -1.945312 1.445312 -2.535156 1.1875 -3.203125 C 0.925781 -3.867188 0.796875 -4.570312 0.796875 -5.3125 C 0.796875 -6.070312 0.925781 -6.785156 1.1875 -7.453125 C 1.457031 -8.117188 1.828125 -8.707031 2.296875 -9.21875 C 2.773438 -9.726562 3.335938 -10.128906 3.984375 -10.421875 C 4.628906 -10.722656 5.332031 -10.875 6.09375 -10.875 C 6.863281 -10.875 7.570312 -10.722656 8.21875 -10.421875 C 8.875 -10.128906 9.4375 -9.726562 9.90625 -9.21875 C 10.375 -8.707031 10.742188 -8.117188 11.015625 -7.453125 C 11.285156 -6.785156 11.421875 -6.070312 11.421875 -5.3125 C 11.421875 -4.570312 11.289062 -3.867188 11.03125 -3.203125 C 10.769531 -2.535156 10.398438 -1.945312 9.921875 -1.4375 C 9.453125 -0.925781 8.890625 -0.523438 8.234375 -0.234375 C 7.585938 0.0546875 6.875 0.203125 6.09375 0.203125 Z M 2.21875 -5.296875 C 2.21875 -4.691406 2.316406 -4.132812 2.515625 -3.625 C 2.722656 -3.113281 3 -2.660156 3.34375 -2.265625 C 3.695312 -1.878906 4.109375 -1.578125 4.578125 -1.359375 C 5.054688 -1.140625 5.5625 -1.03125 6.09375 -1.03125 C 6.632812 -1.03125 7.140625 -1.140625 7.609375 -1.359375 C 8.078125 -1.585938 8.488281 -1.894531 8.84375 -2.28125 C 9.195312 -2.675781 9.476562 -3.132812 9.6875 -3.65625 C 9.894531 -4.175781 10 -4.738281 10 -5.34375 C 10 -5.925781 9.894531 -6.476562 9.6875 -7 C 9.476562 -7.53125 9.195312 -7.988281 8.84375 -8.375 C 8.488281 -8.769531 8.078125 -9.082031 7.609375 -9.3125 C 7.140625 -9.539062 6.632812 -9.65625 6.09375 -9.65625 C 5.5625 -9.65625 5.0625 -9.539062 4.59375 -9.3125 C 4.132812 -9.082031 3.722656 -8.769531 3.359375 -8.375 C 3.003906 -7.976562 2.722656 -7.515625 2.515625 -6.984375 C 2.316406 -6.460938 2.21875 -5.898438 2.21875 -5.296875 Z M 2.21875 -5.296875 "/></g></g></g><g fill="#ffffff" fill-opacity="1"><g transform="translate(283.233584, 65.365154)"><g><path d="M 5.9375 0.203125 C 5.195312 0.203125 4.507812 0.0507812 3.875 -0.25 C 3.25 -0.5625 2.707031 -0.96875 2.25 -1.46875 C 1.800781 -1.976562 1.453125 -2.566406 1.203125 -3.234375 C 0.953125 -3.898438 0.828125 -4.59375 0.828125 -5.3125 C 0.828125 -6.070312 0.945312 -6.789062 1.1875 -7.46875 C 1.4375 -8.144531 1.773438 -8.734375 2.203125 -9.234375 C 2.640625 -9.742188 3.15625 -10.144531 3.75 -10.4375 C 4.34375 -10.726562 4.992188 -10.875 5.703125 -10.875 C 6.609375 -10.875 7.410156 -10.640625 8.109375 -10.171875 C 8.804688 -9.703125 9.351562 -9.128906 9.75 -8.453125 L 9.75 -14.984375 L 11.140625 -14.984375 L 11.140625 -1.8125 C 11.140625 -1.425781 11.304688 -1.234375 11.640625 -1.234375 L 11.640625 0 C 11.429688 0.0390625 11.265625 0.0625 11.140625 0.0625 C 10.816406 0.0625 10.53125 -0.0390625 10.28125 -0.25 C 10.039062 -0.46875 9.921875 -0.726562 9.921875 -1.03125 L 9.921875 -2.078125 C 9.492188 -1.378906 8.914062 -0.820312 8.1875 -0.40625 C 7.46875 0 6.71875 0.203125 5.9375 0.203125 Z M 6.234375 -1.03125 C 6.578125 -1.03125 6.941406 -1.097656 7.328125 -1.234375 C 7.722656 -1.367188 8.09375 -1.554688 8.4375 -1.796875 C 8.78125 -2.035156 9.070312 -2.316406 9.3125 -2.640625 C 9.550781 -2.960938 9.695312 -3.304688 9.75 -3.671875 L 9.75 -6.984375 C 9.613281 -7.347656 9.414062 -7.691406 9.15625 -8.015625 C 8.894531 -8.335938 8.597656 -8.617188 8.265625 -8.859375 C 7.929688 -9.109375 7.570312 -9.300781 7.1875 -9.4375 C 6.800781 -9.582031 6.425781 -9.65625 6.0625 -9.65625 C 5.476562 -9.65625 4.953125 -9.53125 4.484375 -9.28125 C 4.023438 -9.03125 3.628906 -8.703125 3.296875 -8.296875 C 2.960938 -7.898438 2.707031 -7.441406 2.53125 -6.921875 C 2.351562 -6.398438 2.265625 -5.863281 2.265625 -5.3125 C 2.265625 -4.738281 2.363281 -4.191406 2.5625 -3.671875 C 2.769531 -3.148438 3.050781 -2.691406 3.40625 -2.296875 C 3.757812 -1.910156 4.179688 -1.601562 4.671875 -1.375 C 5.160156 -1.144531 5.679688 -1.03125 6.234375 -1.03125 Z M 6.234375 -1.03125 "/></g></g></g><g fill="#ffffff" fill-opacity="1"><g transform="translate(296.000354, 65.365154)"><g><path d="M 4.890625 0.203125 C 3.722656 0.203125 2.851562 -0.179688 2.28125 -0.953125 C 1.71875 -1.722656 1.4375 -2.878906 1.4375 -4.421875 L 1.4375 -10.703125 L 2.828125 -10.703125 L 2.828125 -4.65625 C 2.828125 -2.238281 3.65625 -1.03125 5.3125 -1.03125 C 5.726562 -1.03125 6.132812 -1.097656 6.53125 -1.234375 C 6.925781 -1.367188 7.289062 -1.566406 7.625 -1.828125 C 7.957031 -2.085938 8.257812 -2.394531 8.53125 -2.75 C 8.800781 -3.101562 9.015625 -3.507812 9.171875 -3.96875 L 9.171875 -10.703125 L 10.578125 -10.703125 L 10.578125 -1.8125 C 10.578125 -1.425781 10.738281 -1.234375 11.0625 -1.234375 L 11.0625 0 C 10.894531 0.03125 10.757812 0.046875 10.65625 0.046875 C 10.5625 0.046875 10.492188 0.046875 10.453125 0.046875 C 10.117188 0.0234375 9.847656 -0.09375 9.640625 -0.3125 C 9.441406 -0.53125 9.34375 -0.820312 9.34375 -1.1875 L 9.34375 -2.421875 C 8.875 -1.585938 8.238281 -0.941406 7.4375 -0.484375 C 6.632812 -0.0234375 5.785156 0.203125 4.890625 0.203125 Z M 4.890625 0.203125 "/></g></g></g><g fill="#ffffff" fill-opacity="1"><g transform="translate(308.192423, 65.365154)"><g><path d="M 0.796875 -5.375 C 0.796875 -6.132812 0.925781 -6.847656 1.1875 -7.515625 C 1.445312 -8.179688 1.8125 -8.765625 2.28125 -9.265625 C 2.757812 -9.765625 3.328125 -10.15625 3.984375 -10.4375 C 4.640625 -10.726562 5.363281 -10.875 6.15625 -10.875 C 7.164062 -10.875 8.046875 -10.644531 8.796875 -10.1875 C 9.554688 -9.726562 10.128906 -9.109375 10.515625 -8.328125 L 9.15625 -7.90625 C 8.851562 -8.445312 8.429688 -8.875 7.890625 -9.1875 C 7.347656 -9.5 6.75 -9.65625 6.09375 -9.65625 C 5.550781 -9.65625 5.039062 -9.546875 4.5625 -9.328125 C 4.09375 -9.109375 3.679688 -8.804688 3.328125 -8.421875 C 2.984375 -8.046875 2.710938 -7.597656 2.515625 -7.078125 C 2.316406 -6.554688 2.21875 -5.988281 2.21875 -5.375 C 2.21875 -4.769531 2.316406 -4.203125 2.515625 -3.671875 C 2.722656 -3.140625 3.003906 -2.675781 3.359375 -2.28125 C 3.722656 -1.894531 4.140625 -1.585938 4.609375 -1.359375 C 5.078125 -1.140625 5.582031 -1.03125 6.125 -1.03125 C 6.457031 -1.03125 6.789062 -1.078125 7.125 -1.171875 C 7.46875 -1.265625 7.78125 -1.394531 8.0625 -1.5625 C 8.351562 -1.738281 8.597656 -1.9375 8.796875 -2.15625 C 9.003906 -2.375 9.148438 -2.609375 9.234375 -2.859375 L 10.609375 -2.4375 C 10.460938 -2.0625 10.242188 -1.710938 9.953125 -1.390625 C 9.671875 -1.066406 9.332031 -0.785156 8.9375 -0.546875 C 8.550781 -0.304688 8.117188 -0.125 7.640625 0 C 7.171875 0.132812 6.6875 0.203125 6.1875 0.203125 C 5.40625 0.203125 4.679688 0.0546875 4.015625 -0.234375 C 3.359375 -0.523438 2.789062 -0.925781 2.3125 -1.4375 C 1.832031 -1.957031 1.457031 -2.550781 1.1875 -3.21875 C 0.925781 -3.894531 0.796875 -4.613281 0.796875 -5.375 Z M 0.796875 -5.375 "/></g></g></g><g fill="#ffffff" fill-opacity="1"><g transform="translate(319.460851, 65.365154)"><g><path d="M 6.671875 -0.515625 C 6.585938 -0.472656 6.46875 -0.414062 6.3125 -0.34375 C 6.15625 -0.28125 5.972656 -0.210938 5.765625 -0.140625 C 5.566406 -0.078125 5.335938 -0.0195312 5.078125 0.03125 C 4.816406 0.09375 4.539062 0.125 4.25 0.125 C 3.945312 0.125 3.660156 0.0820312 3.390625 0 C 3.117188 -0.0820312 2.878906 -0.207031 2.671875 -0.375 C 2.460938 -0.550781 2.296875 -0.769531 2.171875 -1.03125 C 2.046875 -1.289062 1.984375 -1.59375 1.984375 -1.9375 L 1.984375 -9.59375 L 0.515625 -9.59375 L 0.515625 -10.703125 L 1.984375 -10.703125 L 1.984375 -14.3125 L 3.390625 -14.3125 L 3.390625 -10.703125 L 5.84375 -10.703125 L 5.84375 -9.59375 L 3.390625 -9.59375 L 3.390625 -2.3125 C 3.410156 -1.914062 3.546875 -1.625 3.796875 -1.4375 C 4.054688 -1.257812 4.351562 -1.171875 4.6875 -1.171875 C 5.082031 -1.171875 5.429688 -1.234375 5.734375 -1.359375 C 6.035156 -1.492188 6.222656 -1.585938 6.296875 -1.640625 Z M 6.671875 -0.515625 "/></g></g></g><g fill="#ffffff" fill-opacity="1"><g transform="translate(326.336847, 65.365154)"><g><path d="M 1.546875 0 L 1.546875 -10.703125 L 2.9375 -10.703125 L 2.9375 0 Z M 1.546875 -12.9375 L 1.546875 -14.984375 L 2.9375 -14.984375 L 2.9375 -12.9375 Z M 1.546875 -12.9375 "/></g></g></g><g fill="#ffffff" fill-opacity="1"><g transform="translate(330.811378, 65.365154)"><g><path d="M 6.09375 0.203125 C 5.3125 0.203125 4.597656 0.0546875 3.953125 -0.234375 C 3.316406 -0.523438 2.757812 -0.925781 2.28125 -1.4375 C 1.8125 -1.945312 1.445312 -2.535156 1.1875 -3.203125 C 0.925781 -3.867188 0.796875 -4.570312 0.796875 -5.3125 C 0.796875 -6.070312 0.925781 -6.785156 1.1875 -7.453125 C 1.457031 -8.117188 1.828125 -8.707031 2.296875 -9.21875 C 2.773438 -9.726562 3.335938 -10.128906 3.984375 -10.421875 C 4.628906 -10.722656 5.332031 -10.875 6.09375 -10.875 C 6.863281 -10.875 7.570312 -10.722656 8.21875 -10.421875 C 8.875 -10.128906 9.4375 -9.726562 9.90625 -9.21875 C 10.375 -8.707031 10.742188 -8.117188 11.015625 -7.453125 C 11.285156 -6.785156 11.421875 -6.070312 11.421875 -5.3125 C 11.421875 -4.570312 11.289062 -3.867188 11.03125 -3.203125 C 10.769531 -2.535156 10.398438 -1.945312 9.921875 -1.4375 C 9.453125 -0.925781 8.890625 -0.523438 8.234375 -0.234375 C 7.585938 0.0546875 6.875 0.203125 6.09375 0.203125 Z M 2.21875 -5.296875 C 2.21875 -4.691406 2.316406 -4.132812 2.515625 -3.625 C 2.722656 -3.113281 3 -2.660156 3.34375 -2.265625 C 3.695312 -1.878906 4.109375 -1.578125 4.578125 -1.359375 C 5.054688 -1.140625 5.5625 -1.03125 6.09375 -1.03125 C 6.632812 -1.03125 7.140625 -1.140625 7.609375 -1.359375 C 8.078125 -1.585938 8.488281 -1.894531 8.84375 -2.28125 C 9.195312 -2.675781 9.476562 -3.132812 9.6875 -3.65625 C 9.894531 -4.175781 10 -4.738281 10 -5.34375 C 10 -5.925781 9.894531 -6.476562 9.6875 -7 C 9.476562 -7.53125 9.195312 -7.988281 8.84375 -8.375 C 8.488281 -8.769531 8.078125 -9.082031 7.609375 -9.3125 C 7.140625 -9.539062 6.632812 -9.65625 6.09375 -9.65625 C 5.5625 -9.65625 5.0625 -9.539062 4.59375 -9.3125 C 4.132812 -9.082031 3.722656 -8.769531 3.359375 -8.375 C 3.003906 -7.976562 2.722656 -7.515625 2.515625 -6.984375 C 2.316406 -6.460938 2.21875 -5.898438 2.21875 -5.296875 Z M 2.21875 -5.296875 "/></g></g></g><g fill="#ffffff" fill-opacity="1"><g transform="translate(343.023966, 65.365154)"><g><path d="M 10.53125 0 L 9.140625 0 L 9.140625 -5.96875 C 9.140625 -7.25 8.945312 -8.175781 8.5625 -8.75 C 8.1875 -9.320312 7.613281 -9.609375 6.84375 -9.609375 C 6.425781 -9.609375 6.007812 -9.53125 5.59375 -9.375 C 5.1875 -9.226562 4.804688 -9.015625 4.453125 -8.734375 C 4.109375 -8.460938 3.800781 -8.140625 3.53125 -7.765625 C 3.257812 -7.390625 3.0625 -6.984375 2.9375 -6.546875 L 2.9375 0 L 1.546875 0 L 1.546875 -10.703125 L 2.8125 -10.703125 L 2.8125 -8.28125 C 3.25 -9.050781 3.875 -9.675781 4.6875 -10.15625 C 5.5 -10.632812 6.382812 -10.875 7.34375 -10.875 C 7.9375 -10.875 8.4375 -10.765625 8.84375 -10.546875 C 9.257812 -10.328125 9.585938 -10.019531 9.828125 -9.625 C 10.078125 -9.226562 10.253906 -8.742188 10.359375 -8.171875 C 10.472656 -7.597656 10.53125 -6.960938 10.53125 -6.265625 Z M 10.53125 0 "/></g></g></g><g fill="#ffffff" fill-opacity="1"><g transform="translate(354.990255, 65.365154)"><g><path d="M 5.09375 0.203125 C 4.257812 0.203125 3.441406 0.0664062 2.640625 -0.203125 C 1.847656 -0.472656 1.164062 -0.867188 0.59375 -1.390625 L 1.234375 -2.34375 C 1.835938 -1.84375 2.445312 -1.46875 3.0625 -1.21875 C 3.6875 -0.976562 4.359375 -0.859375 5.078125 -0.859375 C 5.929688 -0.859375 6.613281 -1.03125 7.125 -1.375 C 7.644531 -1.726562 7.90625 -2.226562 7.90625 -2.875 C 7.90625 -3.175781 7.835938 -3.425781 7.703125 -3.625 C 7.566406 -3.820312 7.363281 -3.992188 7.09375 -4.140625 C 6.820312 -4.296875 6.484375 -4.429688 6.078125 -4.546875 C 5.679688 -4.660156 5.21875 -4.78125 4.6875 -4.90625 C 4.0625 -5.050781 3.523438 -5.195312 3.078125 -5.34375 C 2.628906 -5.5 2.253906 -5.671875 1.953125 -5.859375 C 1.660156 -6.054688 1.441406 -6.296875 1.296875 -6.578125 C 1.160156 -6.859375 1.09375 -7.210938 1.09375 -7.640625 C 1.09375 -8.171875 1.195312 -8.640625 1.40625 -9.046875 C 1.613281 -9.460938 1.898438 -9.800781 2.265625 -10.0625 C 2.628906 -10.332031 3.050781 -10.535156 3.53125 -10.671875 C 4.019531 -10.804688 4.539062 -10.875 5.09375 -10.875 C 5.914062 -10.875 6.660156 -10.738281 7.328125 -10.46875 C 7.992188 -10.207031 8.535156 -9.859375 8.953125 -9.421875 L 8.28125 -8.609375 C 7.875 -9.015625 7.382812 -9.316406 6.8125 -9.515625 C 6.25 -9.722656 5.660156 -9.828125 5.046875 -9.828125 C 4.679688 -9.828125 4.335938 -9.789062 4.015625 -9.71875 C 3.703125 -9.644531 3.425781 -9.523438 3.1875 -9.359375 C 2.945312 -9.191406 2.757812 -8.984375 2.625 -8.734375 C 2.488281 -8.484375 2.421875 -8.1875 2.421875 -7.84375 C 2.421875 -7.550781 2.46875 -7.316406 2.5625 -7.140625 C 2.65625 -6.960938 2.8125 -6.804688 3.03125 -6.671875 C 3.25 -6.546875 3.523438 -6.429688 3.859375 -6.328125 C 4.203125 -6.234375 4.613281 -6.128906 5.09375 -6.015625 C 5.78125 -5.847656 6.378906 -5.679688 6.890625 -5.515625 C 7.410156 -5.359375 7.84375 -5.171875 8.1875 -4.953125 C 8.539062 -4.734375 8.804688 -4.460938 8.984375 -4.140625 C 9.171875 -3.828125 9.265625 -3.445312 9.265625 -3 C 9.265625 -2.007812 8.882812 -1.226562 8.125 -0.65625 C 7.375 -0.0820312 6.363281 0.203125 5.09375 0.203125 Z M 5.09375 0.203125 "/></g></g></g><g mask="url(#id4)"><g transform="matrix(1, 0, 0, 1, 20, 92)"><g clip-path="url(#id6)"><g clip-path="url(#id5)"><path stroke-linecap="butt" transform="matrix(0.743254, 0, 0, 0.756303, 1.825786, 1.450766)" fill="none" stroke-linejoin="miter" d="M -0.00210871 -0.00204523 L 283.48519 -0.00204523 " stroke="#ffffff" stroke-width="1" stroke-opacity="1" stroke-miterlimit="4"/></g></g></g></g></svg>