<svg width="1348" height="274" viewBox="0 0 1348 274" fill="none" xmlns="http://www.w3.org/2000/svg">
<path d="M17.86 58.2C19 46.99 29.735 39.105 39.995 37.3C41.42 37.11 42.845 36.92 44.27 36.92C49.21 36.92 53.675 38.535 55.765 42.62C56.525 43.76 56.81 46.895 57.665 43.285C57.285 37.775 50.92 33.405 42.845 33.405C41.8 33.405 40.755 33.405 39.71 33.595C26.98 35.21 14.82 45.09 14.155 57.915C13.68 65.8 16.53 71.88 21.185 76.155L19.855 76.915C11.97 81.475 4.465 90.595 4.465 100.285C4.465 102.945 5.035 105.7 6.365 108.36C11.97 118.905 23.465 123.37 36.765 123.37C56.05 123.37 71.725 108.645 71.06 101.14C71.06 100.285 70.015 99.335 69.73 100C66.5 109.31 50.92 119.095 35.72 119.57C25.08 119.855 13.585 116.34 9.405 108.17C8.36 106.08 7.885 103.8 7.885 101.52C7.885 92.97 14.535 83.945 22.42 79.48L24.32 78.53C28.88 81.57 34.485 83.47 40.28 84.04C45.505 84.515 53.865 82.9 51.395 76.915C49.78 73.02 43.795 71.31 37.145 71.69C32.775 71.975 28.215 73.21 24.415 74.73C19.95 70.74 17.195 65.04 17.86 58.2ZM37.24 74.92C43.415 74.35 48.925 75.775 48.735 78.815C48.545 81.285 41.61 81.19 40.47 81.095C35.91 81 31.445 79.575 27.645 77.2C30.59 76.155 33.915 75.3 37.24 74.92ZM91.0248 96.58L88.6498 98.29C79.0548 105.415 71.4548 114.915 70.0298 122.23C69.5548 125.65 71.0748 129.07 73.6398 131.73C76.2998 134.39 80.0998 135.91 82.4748 135.435C90.7398 133.725 93.3048 120.71 94.0648 108.74L94.3498 99.905L94.4448 98.765L97.1998 96.865C101.19 94.49 107.46 91.07 111.26 89.93C112.02 89.74 112.115 89.55 111.26 88.79C109.075 86.795 97.0098 92.685 94.4448 94.205L94.3498 94.3V93.92C94.2548 88.41 93.7798 84.515 93.6848 84.325C93.5898 83.28 91.9748 82.14 91.0248 82.14C90.6448 82.14 90.2648 82.235 90.1698 82.425C90.0748 82.52 89.9798 82.52 90.1698 82.615C90.0748 82.71 89.8848 82.805 89.8848 82.995C89.6948 86.035 81.3348 97.15 77.3448 94.87C75.7298 93.92 75.5398 91.165 75.3498 89.645C75.4448 88.315 75.7298 87.08 75.9198 86.13C76.3948 85.18 76.8698 84.61 77.2498 84.515C77.7248 84.325 77.7248 83.47 76.9648 82.71C76.2048 81.95 75.1598 81.57 74.5898 81.76C73.6398 82.045 73.0698 82.995 72.6898 84.04C72.2148 85.275 72.0248 86.605 72.0248 87.935C72.0248 89.55 72.4048 91.165 72.8798 92.495C74.1148 95.535 77.1548 97.91 80.2898 97.91C83.4248 97.91 87.7948 94.11 90.5498 90.405L91.0248 96.58ZM79.9098 132.585C78.7698 132.87 76.9648 132.11 75.5398 130.78C74.3998 129.45 72.9748 127.075 73.5448 124.13C74.5898 117.765 81.0498 110.07 88.7448 103.04L90.9298 101.045C91.0248 114.345 87.1298 131.16 79.9098 132.585ZM123.599 98.86C138.609 98.48 162.644 88.695 163.879 83.66C164.069 82.9 163.119 82.71 162.644 83.09C160.079 85.085 133.194 96.485 121.034 96.485C116.474 96.485 112.009 94.49 111.724 89.55C117.044 89.93 121.319 86.035 121.034 82.615C120.939 81.475 120.084 80.525 118.754 79.86C117.804 79.48 116.949 79.385 115.999 79.385C112.009 79.385 108.684 82.425 108.114 87.175C107.164 96.01 115.809 99.05 123.599 98.86ZM118.279 82.52C117.899 84.515 114.004 87.84 111.914 87.08C112.294 84.705 114.289 82.045 118.279 82.52ZM199.477 132.11C201.662 133.25 203.277 133.06 204.322 132.3C205.367 131.54 206.317 130.21 206.887 128.5C207.932 125.84 208.407 122.135 208.407 118.05C208.407 116.91 208.407 115.77 208.312 114.535C207.932 109.025 206.507 103.135 203.847 97.91C202.327 95.345 200.807 92.875 198.622 90.785L197.007 89.455L197.862 89.55C198.622 89.645 199.857 89.645 201.377 89.645C205.557 89.645 211.827 89.36 214.582 88.505C218.382 87.27 218.287 85.085 216.387 85.655C214.677 86.32 197.482 86.795 196.342 86.7H195.962L195.867 86.13C196.057 80.525 197.577 62.095 198.147 58.295C198.337 57.725 197.672 56.775 196.722 56.3C195.867 55.825 195.012 55.825 194.917 56.395C194.157 60.29 192.637 78.815 192.542 84.515L192.637 86.32L190.262 85.845C188.267 85.37 189.027 87.84 191.022 88.41L192.637 89.17C192.352 93.065 192.067 98.195 192.067 103.61C192.067 114.725 193.397 126.98 199.192 131.92C199.287 132.015 199.382 132.11 199.477 132.11ZM203.752 126.6C202.612 130.02 200.997 130.4 200.047 129.83L200.237 129.925L199.952 129.545C196.057 124.7 195.012 114.345 195.012 104.845C195.012 99.715 195.297 94.775 195.677 91.26L196.722 92.02C198.242 93.635 199.762 95.63 200.997 97.91C203.372 102.565 204.607 108.075 204.987 113.3C205.082 114.725 205.177 116.245 205.177 117.575C205.177 121.185 204.702 124.32 203.752 126.6ZM240.69 86.51C242.97 85.75 243.635 84.515 240.88 84.61C240.025 84.61 236.32 84.99 231.855 84.99C229.67 84.99 227.2 84.895 224.825 84.61C223.4 82.9 221.31 81.665 218.745 81.285C216.845 81.19 216.18 82.235 215.8 83.565C215.61 83.565 215.515 83.66 215.325 83.66C213.14 84.42 210.67 88.98 211.335 92.97C211.81 95.63 214.185 98.575 217.7 98.765C222.07 99.05 225.965 96.675 226.82 91.925C227.105 90.5 227.01 89.075 226.63 87.84C232.425 88.125 238.6 87.27 240.69 86.51ZM217.225 85.75L217.415 85.56C218.745 86.415 220.55 86.985 222.735 87.365C224.255 90.785 222.165 96.2 217.985 96.39C216.18 96.485 215.135 95.44 214.66 92.685C214.185 90.025 215.99 86.7 217.225 85.75ZM239.764 97.15C240.144 98.575 243.279 99.81 243.184 98.575C243.564 95.82 243.564 95.25 243.849 94.49C246.129 87.935 254.014 82.14 258.764 82.235L258.669 82.995C258.574 83.755 259.904 84.325 261.234 82.805C261.899 82.045 260.569 80.05 258.384 79.67C253.159 78.815 246.129 84.325 243.754 87.365L243.849 83.66C243.849 83.09 243.279 82.14 242.424 81.665C241.474 81.19 240.524 81.19 240.524 81.855C239.194 93.825 239.384 96.295 239.764 97.15ZM352.545 29.415C352.83 28.94 352.165 28.18 351.12 27.705C350.075 27.135 349.125 27.23 348.935 27.8C348.555 28.75 347.985 34.26 347.51 39.77C344.565 39.39 341.62 39.2 338.77 39.2C336.965 39.2 335.255 39.2 333.64 39.39C315.02 40.815 298.87 50.315 298.87 64.66C298.87 66.56 299.155 68.555 299.725 70.645C303.525 83.28 317.775 93.825 331.36 92.875C336.585 92.4 337.915 89.17 334.4 90.215C333.545 90.5 332.405 90.88 331.265 90.975C318.915 91.735 306.28 81.475 303.335 71.595C302.765 69.6 302.48 67.7 302.48 65.895C302.48 52.31 318.155 43.475 335.825 42.145C337.535 42.05 339.245 41.955 341.05 41.955C343.14 41.955 345.23 42.05 347.32 42.24C347.035 45.185 346.845 48.035 346.75 49.84C345.99 62.38 344.945 83.375 344.755 96.96V100.855C336.87 105.13 333.83 108.455 332.69 111.4C332.12 113.68 332.5 115.96 334.21 118.05C334.875 118.81 335.92 119.76 336.965 120.425C340.195 122.8 344.755 123.845 349.6 123.845C350.55 123.845 351.5 123.845 352.45 123.75C354.73 123.655 357.105 123.275 359.1 122.705C367.65 120.805 376.58 116.435 382.85 109.88C387.79 104.94 391.305 98.765 393.3 92.115L393.49 91.07L397.48 90.405L411.35 88.6C412.11 88.505 412.205 88.41 411.73 87.745C411.255 87.27 410.115 86.795 406.79 86.795C404.13 86.795 400.235 87.08 394.155 87.935L394.44 85.94C394.63 84.61 394.63 83.185 394.63 81.855C394.63 74.065 392.065 66.085 386.175 58.865C378.005 49.08 364.325 42.81 351.025 40.34C351.405 35.685 351.88 31.03 352.545 29.415ZM383.23 58.865C388.645 65.8 391.115 73.59 391.115 81.19C391.115 83.66 390.83 86.13 390.355 88.505H390.26L389.69 88.695C371.07 91.83 357.485 95.535 348.27 99.43C348.365 99.145 348.27 98.86 348.27 98.575C348.27 85.085 349.505 65.04 350.455 50.98C350.55 49.365 350.645 46.23 350.93 42.715C363.28 44.615 375.44 50.03 383.23 58.865ZM347.7 116.15C348.27 116.15 348.745 115.77 348.555 115.295L348.46 114.82C348.27 114.63 348.08 113.775 348.08 106.935V103.23C356.44 99.335 369.075 95.44 387.03 92.115L389.31 91.83L389.12 92.305C387.315 97.91 383.99 103.23 379.715 107.6C373.35 113.965 364.705 118.145 356.63 120.045C354.16 120.52 352.07 120.9 349.98 120.995C348.365 121.185 346.655 121.185 345.42 121.09C342.19 120.9 339.91 120.045 338.485 119.19C336.68 117.765 335.635 115.865 336.395 113.395C336.965 110.64 339.91 107.885 344.85 105.035C345.135 108.075 344.755 115.96 347.7 116.15ZM445.531 60.67C445.151 60.765 444.771 60.765 444.391 60.765C444.961 53.735 445.626 46.705 446.196 43C446.481 41.195 442.016 39.77 441.731 41.29C441.256 47.37 440.306 54.305 438.881 61.145C427.386 62.095 420.641 62.95 414.086 64.09C412.471 64.47 414.466 66.94 416.271 66.655C423.586 65.42 430.711 64.755 438.311 64.185C434.511 80.715 427.386 95.725 414.941 94.965C413.231 94.87 412.091 94.11 411.331 92.875C410.571 91.925 410.286 90.785 410.001 89.55C414.941 91.45 420.356 86.225 419.786 83.66C419.501 82.71 418.931 81.095 417.601 80.43C416.461 79.86 415.321 79.575 414.276 79.575C412.186 79.575 410.286 80.43 409.146 81.475C407.531 82.995 405.916 86.51 406.296 89.17C406.296 94.11 412.091 97.53 416.746 97.72C429.571 98.195 437.076 83.09 440.021 72.925L439.641 79.1C439.451 82.235 439.261 88.695 439.261 95.915C439.261 106.745 439.641 119.475 441.161 126.22C441.921 128.12 444.676 129.64 444.296 127.55C443.061 123.275 442.586 114.25 442.586 104.845C442.586 96.01 442.966 86.7 443.251 80.525C443.251 77.96 443.631 71.025 444.201 63.71C444.391 63.71 444.581 63.615 444.771 63.615C451.991 63.045 463.106 62.095 473.271 62.095C478.971 62.095 484.291 62.38 488.566 63.235C489.326 63.33 489.801 62.95 489.706 62.19C489.326 61.62 488.376 60.67 487.521 60.29C484.101 59.53 479.161 59.245 473.746 59.245C464.436 59.245 453.606 60.1 445.531 60.67ZM416.651 82.52C416.271 84.515 412.471 87.84 410.286 87.08C411.141 84.895 412.661 82.045 416.651 82.52ZM453.792 96.295C454.837 96.96 455.977 97.245 457.212 97.245C462.247 97.245 468.517 92.4 471.177 90.025C472.412 93.445 474.787 95.25 477.922 96.01C481.912 96.96 488.467 93.92 490.842 91.545C496.067 86.32 494.642 83.945 493.027 85.56C489.607 89.36 481.437 94.205 476.592 93.255C474.882 92.78 474.407 90.88 474.502 89.265C474.692 87.46 475.547 85.75 476.022 84.325C476.687 83.185 473.457 81.095 472.887 82.14L471.272 84.325H471.177C468.802 83.28 466.142 82.71 463.482 82.71C460.157 82.71 456.927 83.565 454.362 85.275C451.987 86.89 450.942 88.98 450.942 91.07C450.942 93.065 451.892 94.87 453.792 96.295ZM455.502 94.205C454.077 94.11 453.507 93.065 453.792 91.925C454.837 87.555 461.107 85.75 465.857 85.75C467.282 85.75 468.612 85.94 469.562 86.225C466.237 89.74 460.062 93.635 455.502 94.205ZM492.684 95.82C494.489 97.815 497.054 98.385 499.429 98.29C505.984 98.005 514.629 90.5 516.434 87.175C517.574 85.085 516.624 84.515 516.244 84.895C513.394 87.745 503.324 95.345 497.434 95.345C496.389 95.345 495.439 95.06 494.679 94.49C493.254 93.255 495.154 82.52 495.914 81.76C496.009 81.285 495.439 80.525 494.394 80.145C493.254 79.86 492.304 79.955 492.209 80.43C491.164 82.045 490.594 84.99 490.594 87.935C490.594 91.07 491.259 94.3 492.684 95.82ZM494.679 73.78C495.534 74.255 496.674 74.255 496.959 73.875C497.244 73.4 498.004 71.31 498.194 70.835C498.479 70.265 498.479 69.6 498.479 69.22C498.669 68.745 497.909 67.985 496.674 67.7C495.724 67.32 494.679 67.51 494.679 68.08L494.489 69.505C494.299 69.98 493.634 71.88 493.444 72.165C492.969 72.545 493.539 73.4 494.679 73.78ZM523.864 103.895C529.849 103.895 537.449 93.635 539.159 88.885C539.539 87.745 539.349 85.37 538.399 86.7C536.974 88.505 525.479 103.99 520.539 100.95C518.449 99.525 517.689 92.78 517.689 84.325C517.689 67.89 520.444 45.09 521.014 43.285C521.014 42.81 520.254 42.05 519.304 41.575C518.354 41.195 517.784 41.29 517.689 41.86C516.454 45.85 513.794 66.275 513.794 82.045C513.794 89.93 514.459 96.675 516.264 99.525C518.164 102.185 520.824 103.895 523.864 103.895ZM574.539 100V57.4H592.179C594.019 57.4 595.699 57.78 597.219 58.54C598.779 59.3 600.119 60.34 601.239 61.66C602.359 62.94 603.239 64.38 603.879 65.98C604.519 67.54 604.839 69.14 604.839 70.78C604.839 73.1 604.319 75.3 603.279 77.38C602.279 79.42 600.859 81.08 599.019 82.36C597.179 83.64 595.019 84.28 592.539 84.28H578.739V100H574.539ZM578.739 80.56H592.359C594.039 80.56 595.499 80.1 596.739 79.18C597.979 78.26 598.939 77.06 599.619 75.58C600.299 74.1 600.639 72.5 600.639 70.78C600.639 69.02 600.239 67.4 599.439 65.92C598.639 64.44 597.579 63.28 596.259 62.44C594.979 61.56 593.559 61.12 591.999 61.12H578.739V80.56ZM626.623 72.34C623.903 72.42 621.503 73.18 619.423 74.62C617.383 76.06 615.943 78.04 615.103 80.56V100H611.023V68.74H614.863V76.24C615.943 74.04 617.363 72.26 619.123 70.9C620.923 69.54 622.823 68.78 624.823 68.62C625.223 68.58 625.563 68.56 625.843 68.56C626.163 68.56 626.423 68.58 626.623 68.62V72.34ZM644.383 100.6C642.143 100.6 640.063 100.18 638.143 99.34C636.263 98.46 634.623 97.28 633.223 95.8C631.863 94.28 630.803 92.56 630.043 90.64C629.283 88.68 628.903 86.62 628.903 84.46C628.903 82.22 629.283 80.14 630.043 78.22C630.803 76.26 631.883 74.54 633.283 73.06C634.683 71.54 636.323 70.36 638.203 69.52C640.123 68.64 642.203 68.2 644.443 68.2C646.683 68.2 648.743 68.64 650.623 69.52C652.503 70.36 654.143 71.54 655.543 73.06C656.943 74.54 658.023 76.26 658.783 78.22C659.543 80.14 659.923 82.22 659.923 84.46C659.923 86.62 659.543 88.68 658.783 90.64C658.023 92.56 656.943 94.28 655.543 95.8C654.183 97.28 652.543 98.46 650.623 99.34C648.743 100.18 646.663 100.6 644.383 100.6ZM633.043 84.52C633.043 86.84 633.543 88.96 634.543 90.88C635.583 92.76 636.963 94.26 638.683 95.38C640.403 96.46 642.303 97 644.383 97C646.463 97 648.363 96.44 650.083 95.32C651.803 94.2 653.183 92.68 654.223 90.76C655.263 88.8 655.783 86.68 655.783 84.4C655.783 82.08 655.263 79.96 654.223 78.04C653.183 76.12 651.803 74.6 650.083 73.48C648.363 72.36 646.463 71.8 644.383 71.8C642.303 71.8 640.403 72.38 638.683 73.54C637.003 74.7 635.643 76.24 634.603 78.16C633.563 80.04 633.043 82.16 633.043 84.52ZM664.646 84.46C664.646 81.5 665.246 78.8 666.446 76.36C667.686 73.88 669.386 71.9 671.546 70.42C673.706 68.94 676.166 68.2 678.926 68.2C681.526 68.2 683.846 68.9 685.886 70.3C687.966 71.66 689.586 73.32 690.746 75.28V56.2H694.826V95.08C694.826 95.64 694.946 96.06 695.186 96.34C695.426 96.58 695.786 96.72 696.266 96.76V100C695.466 100.12 694.846 100.16 694.406 100.12C693.566 100.08 692.826 99.74 692.186 99.1C691.546 98.46 691.226 97.76 691.226 97V93.94C689.986 95.98 688.306 97.6 686.186 98.8C684.066 100 681.866 100.6 679.586 100.6C677.426 100.6 675.426 100.16 673.586 99.28C671.786 98.4 670.206 97.2 668.846 95.68C667.526 94.16 666.486 92.44 665.726 90.52C665.006 88.56 664.646 86.54 664.646 84.46ZM690.746 89.26V79.6C690.226 78.16 689.386 76.86 688.226 75.7C687.066 74.5 685.746 73.56 684.266 72.88C682.826 72.16 681.386 71.8 679.946 71.8C678.266 71.8 676.746 72.16 675.386 72.88C674.026 73.56 672.846 74.5 671.846 75.7C670.886 76.9 670.146 78.26 669.626 79.78C669.106 81.3 668.846 82.86 668.846 84.46C668.846 86.14 669.126 87.74 669.686 89.26C670.286 90.78 671.126 92.14 672.206 93.34C673.286 94.5 674.526 95.4 675.926 96.04C677.326 96.68 678.846 97 680.486 97C681.526 97 682.606 96.8 683.726 96.4C684.846 96 685.906 95.46 686.906 94.78C687.946 94.06 688.806 93.22 689.486 92.26C690.166 91.3 690.586 90.3 690.746 89.26ZM703.77 87.1V68.74H707.85V86.38C707.85 89.94 708.45 92.6 709.65 94.36C710.89 96.12 712.71 97 715.11 97C716.71 97 718.25 96.66 719.73 95.98C721.25 95.26 722.59 94.26 723.75 92.98C724.91 91.66 725.79 90.14 726.39 88.42V68.74H730.47V95.08C730.47 95.64 730.59 96.06 730.83 96.34C731.07 96.58 731.43 96.72 731.91 96.76V100C731.43 100.04 731.05 100.06 730.77 100.06C730.49 100.1 730.23 100.12 729.99 100.12C729.19 100.04 728.49 99.72 727.89 99.16C727.33 98.6 727.03 97.92 726.99 97.12L726.87 92.92C725.51 95.32 723.65 97.2 721.29 98.56C718.97 99.92 716.45 100.6 713.73 100.6C710.45 100.6 707.97 99.46 706.29 97.18C704.61 94.9 703.77 91.54 703.77 87.1ZM753.255 100.6C750.975 100.6 748.875 100.18 746.955 99.34C745.075 98.46 743.415 97.26 741.975 95.74C740.575 94.22 739.475 92.48 738.675 90.52C737.915 88.56 737.535 86.48 737.535 84.28C737.535 81.32 738.195 78.62 739.515 76.18C740.835 73.74 742.675 71.8 745.035 70.36C747.395 68.92 750.115 68.2 753.195 68.2C756.115 68.2 758.695 68.88 760.935 70.24C763.175 71.56 764.835 73.36 765.915 75.64L761.955 76.9C761.075 75.3 759.835 74.06 758.235 73.18C756.675 72.26 754.935 71.8 753.015 71.8C750.935 71.8 749.035 72.34 747.315 73.42C745.595 74.5 744.215 75.98 743.175 77.86C742.175 79.74 741.675 81.88 741.675 84.28C741.675 86.64 742.195 88.78 743.235 90.7C744.275 92.62 745.655 94.16 747.375 95.32C749.095 96.44 750.995 97 753.075 97C754.435 97 755.735 96.76 756.975 96.28C758.255 95.8 759.355 95.16 760.275 94.36C761.235 93.52 761.875 92.62 762.195 91.66L766.215 92.86C765.655 94.34 764.715 95.68 763.395 96.88C762.115 98.04 760.595 98.96 758.835 99.64C757.115 100.28 755.255 100.6 753.255 100.6ZM787.625 98.5C787.305 98.62 786.805 98.84 786.125 99.16C785.445 99.48 784.625 99.76 783.665 100C782.705 100.24 781.665 100.36 780.545 100.36C779.385 100.36 778.285 100.14 777.245 99.7C776.245 99.26 775.445 98.6 774.845 97.72C774.245 96.8 773.945 95.68 773.945 94.36V71.98H769.625V68.74H773.945V58.18H778.025V68.74H785.225V71.98H778.025V93.22C778.105 94.34 778.505 95.18 779.225 95.74C779.985 96.3 780.845 96.58 781.805 96.58C782.925 96.58 783.945 96.4 784.865 96.04C785.785 95.64 786.345 95.36 786.545 95.2L787.625 98.5ZM792.723 100V68.74H796.803V100H792.723ZM792.723 62.2V56.2H796.803V62.2H792.723ZM819.109 100.6C816.869 100.6 814.789 100.18 812.869 99.34C810.989 98.46 809.349 97.28 807.949 95.8C806.589 94.28 805.529 92.56 804.769 90.64C804.009 88.68 803.629 86.62 803.629 84.46C803.629 82.22 804.009 80.14 804.769 78.22C805.529 76.26 806.609 74.54 808.009 73.06C809.409 71.54 811.049 70.36 812.929 69.52C814.849 68.64 816.929 68.2 819.169 68.2C821.409 68.2 823.469 68.64 825.349 69.52C827.229 70.36 828.869 71.54 830.269 73.06C831.669 74.54 832.749 76.26 833.509 78.22C834.269 80.14 834.649 82.22 834.649 84.46C834.649 86.62 834.269 88.68 833.509 90.64C832.749 92.56 831.669 94.28 830.269 95.8C828.909 97.28 827.269 98.46 825.349 99.34C823.469 100.18 821.389 100.6 819.109 100.6ZM807.769 84.52C807.769 86.84 808.269 88.96 809.269 90.88C810.309 92.76 811.689 94.26 813.409 95.38C815.129 96.46 817.029 97 819.109 97C821.189 97 823.089 96.44 824.809 95.32C826.529 94.2 827.909 92.68 828.949 90.76C829.989 88.8 830.509 86.68 830.509 84.4C830.509 82.08 829.989 79.96 828.949 78.04C827.909 76.12 826.529 74.6 824.809 73.48C823.089 72.36 821.189 71.8 819.109 71.8C817.029 71.8 815.129 72.38 813.409 73.54C811.729 74.7 810.369 76.24 809.329 78.16C808.289 80.04 807.769 82.16 807.769 84.52ZM867.753 100H863.673V82.54C863.673 78.86 863.133 76.18 862.053 74.5C860.973 72.78 859.273 71.92 856.953 71.92C855.353 71.92 853.773 72.32 852.213 73.12C850.653 73.88 849.273 74.94 848.073 76.3C846.913 77.62 846.073 79.14 845.553 80.86V100H841.473V68.74H845.193V75.82C846.033 74.3 847.133 72.98 848.493 71.86C849.853 70.7 851.393 69.8 853.113 69.16C854.833 68.52 856.613 68.2 858.453 68.2C860.173 68.2 861.633 68.52 862.833 69.16C864.033 69.8 864.993 70.72 865.713 71.92C866.433 73.08 866.953 74.5 867.273 76.18C867.593 77.82 867.753 79.66 867.753 81.7V100ZM886.713 100.6C884.153 100.6 881.773 100.18 879.573 99.34C877.373 98.5 875.473 97.22 873.873 95.5L875.553 92.62C877.313 94.26 879.073 95.46 880.833 96.22C882.633 96.94 884.533 97.3 886.533 97.3C888.973 97.3 890.953 96.82 892.473 95.86C893.993 94.86 894.753 93.44 894.753 91.6C894.753 90.36 894.373 89.42 893.613 88.78C892.893 88.1 891.833 87.56 890.433 87.16C889.073 86.72 887.433 86.26 885.513 85.78C883.353 85.18 881.533 84.56 880.053 83.92C878.613 83.24 877.513 82.4 876.753 81.4C876.033 80.36 875.673 79.02 875.673 77.38C875.673 75.34 876.173 73.66 877.173 72.34C878.213 70.98 879.613 69.96 881.373 69.28C883.173 68.56 885.173 68.2 887.373 68.2C889.773 68.2 891.893 68.58 893.733 69.34C895.573 70.1 897.073 71.16 898.233 72.52L896.253 75.28C895.133 74 893.793 73.06 892.233 72.46C890.713 71.82 889.013 71.5 887.133 71.5C885.853 71.5 884.633 71.68 883.473 72.04C882.313 72.36 881.353 72.92 880.593 73.72C879.873 74.48 879.513 75.54 879.513 76.9C879.513 78.02 879.793 78.9 880.353 79.54C880.913 80.14 881.753 80.66 882.873 81.1C883.993 81.5 885.373 81.94 887.013 82.42C889.373 83.06 891.433 83.72 893.193 84.4C894.953 85.04 896.313 85.88 897.273 86.92C898.233 87.96 898.713 89.42 898.713 91.3C898.713 94.22 897.613 96.5 895.413 98.14C893.213 99.78 890.313 100.6 886.713 100.6Z" fill="#B9BCC1"/>
<g filter="url(#filter0_d_145_30)">
<path d="M595.051 175.229C595.051 176.536 594.718 177.708 594.052 178.744C593.386 179.755 592.486 180.557 591.351 181.149C590.241 181.716 589.02 182 587.688 182H575.293V155.73H587.947C589.18 155.73 590.241 156.063 591.129 156.729C592.042 157.37 592.732 158.209 593.201 159.245C593.694 160.256 593.941 161.317 593.941 162.427C593.941 163.734 593.608 164.943 592.942 166.053C592.276 167.163 591.351 167.989 590.167 168.532C591.672 168.976 592.856 169.802 593.719 171.011C594.607 172.22 595.051 173.626 595.051 175.229ZM592.461 174.785C592.461 173.897 592.264 173.083 591.869 172.343C591.474 171.578 590.932 170.962 590.241 170.493C589.575 170.024 588.81 169.79 587.947 169.79H577.883V179.743H587.688C588.576 179.743 589.378 179.509 590.093 179.04C590.808 178.571 591.376 177.967 591.795 177.227C592.239 176.462 592.461 175.648 592.461 174.785ZM577.883 157.987V167.681H586.911C587.774 167.681 588.539 167.459 589.205 167.015C589.871 166.546 590.401 165.942 590.796 165.202C591.191 164.462 591.388 163.673 591.388 162.834C591.388 161.946 591.203 161.144 590.833 160.429C590.463 159.689 589.957 159.097 589.316 158.653C588.675 158.209 587.947 157.987 587.133 157.987H577.883ZM607.743 182.37C606.361 182.37 605.079 182.111 603.895 181.593C602.711 181.05 601.687 180.323 600.824 179.41C599.96 178.473 599.282 177.4 598.789 176.191C598.32 174.982 598.086 173.687 598.086 172.306C598.086 170.505 598.493 168.853 599.307 167.348C600.145 165.843 601.292 164.647 602.748 163.759C604.203 162.846 605.856 162.39 607.706 162.39C609.605 162.39 611.258 162.846 612.664 163.759C614.094 164.672 615.217 165.88 616.031 167.385C616.845 168.865 617.252 170.493 617.252 172.269C617.252 172.466 617.252 172.664 617.252 172.861C617.252 173.034 617.239 173.169 617.215 173.268H600.713C600.836 174.649 601.218 175.883 601.86 176.968C602.526 178.029 603.377 178.88 604.413 179.521C605.473 180.138 606.62 180.446 607.854 180.446C609.112 180.446 610.296 180.125 611.406 179.484C612.54 178.843 613.33 178.004 613.774 176.968L615.957 177.56C615.562 178.473 614.958 179.299 614.144 180.039C613.33 180.779 612.368 181.359 611.258 181.778C610.172 182.173 609.001 182.37 607.743 182.37ZM600.639 171.455H614.884C614.785 170.049 614.403 168.816 613.737 167.755C613.095 166.694 612.244 165.868 611.184 165.276C610.148 164.659 609.001 164.351 607.743 164.351C606.485 164.351 605.338 164.659 604.302 165.276C603.266 165.868 602.415 166.707 601.749 167.792C601.107 168.853 600.737 170.074 600.639 171.455ZM621.701 187.92C622.047 187.945 622.38 187.957 622.7 187.957C623.021 187.982 623.255 187.969 623.403 187.92C623.699 187.871 623.983 187.698 624.254 187.402C624.526 187.106 624.846 186.539 625.216 185.7C625.586 184.861 626.104 183.628 626.77 182L618.371 162.723H621.035L628.102 179.41L634.614 162.723H637.13L627.14 187.587C626.968 188.056 626.709 188.487 626.363 188.882C626.018 189.301 625.586 189.622 625.068 189.844C624.575 190.091 623.958 190.226 623.218 190.251C622.996 190.276 622.762 190.276 622.515 190.251C622.293 190.251 622.022 190.226 621.701 190.177V187.92ZM648.173 182.37C646.791 182.37 645.509 182.111 644.325 181.593C643.165 181.05 642.154 180.323 641.291 179.41C640.452 178.473 639.798 177.412 639.33 176.228C638.861 175.019 638.627 173.749 638.627 172.417C638.627 171.036 638.861 169.753 639.33 168.569C639.798 167.36 640.464 166.3 641.328 165.387C642.191 164.45 643.202 163.722 644.362 163.204C645.546 162.661 646.828 162.39 648.21 162.39C649.591 162.39 650.861 162.661 652.021 163.204C653.18 163.722 654.191 164.45 655.055 165.387C655.918 166.3 656.584 167.36 657.053 168.569C657.521 169.753 657.756 171.036 657.756 172.417C657.756 173.749 657.521 175.019 657.053 176.228C656.584 177.412 655.918 178.473 655.055 179.41C654.216 180.323 653.205 181.05 652.021 181.593C650.861 182.111 649.579 182.37 648.173 182.37ZM641.18 172.454C641.18 173.885 641.488 175.192 642.105 176.376C642.746 177.535 643.597 178.46 644.658 179.151C645.718 179.817 646.89 180.15 648.173 180.15C649.455 180.15 650.627 179.805 651.688 179.114C652.748 178.423 653.599 177.486 654.241 176.302C654.882 175.093 655.203 173.786 655.203 172.38C655.203 170.949 654.882 169.642 654.241 168.458C653.599 167.274 652.748 166.337 651.688 165.646C650.627 164.955 649.455 164.61 648.173 164.61C646.89 164.61 645.718 164.968 644.658 165.683C643.622 166.398 642.783 167.348 642.142 168.532C641.5 169.691 641.18 170.999 641.18 172.454ZM678.169 182H675.653V171.233C675.653 168.964 675.32 167.311 674.654 166.275C673.988 165.214 672.94 164.684 671.509 164.684C670.523 164.684 669.548 164.931 668.586 165.424C667.624 165.893 666.773 166.546 666.033 167.385C665.318 168.199 664.8 169.136 664.479 170.197V182H661.963V162.723H664.257V167.089C664.775 166.152 665.454 165.338 666.292 164.647C667.131 163.932 668.081 163.377 669.141 162.982C670.202 162.587 671.3 162.39 672.434 162.39C673.495 162.39 674.395 162.587 675.135 162.982C675.875 163.377 676.467 163.944 676.911 164.684C677.355 165.399 677.676 166.275 677.873 167.311C678.071 168.322 678.169 169.457 678.169 170.715V182ZM682.24 172.417C682.24 170.592 682.61 168.927 683.35 167.422C684.114 165.893 685.163 164.672 686.495 163.759C687.827 162.846 689.344 162.39 691.046 162.39C692.649 162.39 694.08 162.822 695.338 163.685C696.62 164.524 697.619 165.547 698.335 166.756V154.99H700.851V178.966C700.851 179.311 700.925 179.57 701.073 179.743C701.221 179.891 701.443 179.977 701.739 180.002V182C701.245 182.074 700.863 182.099 700.592 182.074C700.074 182.049 699.617 181.84 699.223 181.445C698.828 181.05 698.631 180.619 698.631 180.15V178.263C697.866 179.521 696.83 180.52 695.523 181.26C694.215 182 692.859 182.37 691.453 182.37C690.121 182.37 688.887 182.099 687.753 181.556C686.643 181.013 685.668 180.273 684.83 179.336C684.016 178.399 683.374 177.338 682.906 176.154C682.462 174.945 682.24 173.7 682.24 172.417ZM698.335 175.377V169.42C698.014 168.532 697.496 167.73 696.781 167.015C696.065 166.275 695.251 165.695 694.339 165.276C693.451 164.832 692.563 164.61 691.675 164.61C690.639 164.61 689.701 164.832 688.863 165.276C688.024 165.695 687.296 166.275 686.68 167.015C686.088 167.755 685.631 168.594 685.311 169.531C684.99 170.468 684.83 171.43 684.83 172.417C684.83 173.453 685.002 174.44 685.348 175.377C685.718 176.314 686.236 177.153 686.902 177.893C687.568 178.608 688.332 179.163 689.196 179.558C690.059 179.953 690.996 180.15 692.008 180.15C692.649 180.15 693.315 180.027 694.006 179.78C694.696 179.533 695.35 179.2 695.967 178.781C696.608 178.337 697.138 177.819 697.558 177.227C697.977 176.635 698.236 176.018 698.335 175.377ZM725.232 181.075C725.035 181.149 724.726 181.285 724.307 181.482C723.888 181.679 723.382 181.852 722.79 182C722.198 182.148 721.557 182.222 720.866 182.222C720.151 182.222 719.472 182.086 718.831 181.815C718.214 181.544 717.721 181.137 717.351 180.594C716.981 180.027 716.796 179.336 716.796 178.522V164.721H714.132V162.723H716.796V156.211H719.312V162.723H723.752V164.721H719.312V177.819C719.361 178.51 719.608 179.028 720.052 179.373C720.521 179.718 721.051 179.891 721.643 179.891C722.334 179.891 722.963 179.78 723.53 179.558C724.097 179.311 724.443 179.139 724.566 179.04L725.232 181.075ZM744.582 182H742.066V171.233C742.066 169.062 741.683 167.434 740.919 166.349C740.154 165.239 739.056 164.684 737.626 164.684C736.688 164.684 735.751 164.931 734.814 165.424C733.901 165.893 733.087 166.546 732.372 167.385C731.681 168.199 731.188 169.136 730.892 170.197V182H728.376V154.99H730.892V167.089C731.656 165.658 732.717 164.524 734.074 163.685C735.455 162.822 736.923 162.39 738.477 162.39C739.587 162.39 740.524 162.587 741.289 162.982C742.078 163.377 742.707 163.956 743.176 164.721C743.669 165.461 744.027 166.337 744.249 167.348C744.471 168.335 744.582 169.457 744.582 170.715V182ZM758.272 182.37C756.891 182.37 755.608 182.111 754.424 181.593C753.24 181.05 752.216 180.323 751.353 179.41C750.49 178.473 749.811 177.4 749.318 176.191C748.849 174.982 748.615 173.687 748.615 172.306C748.615 170.505 749.022 168.853 749.836 167.348C750.675 165.843 751.822 164.647 753.277 163.759C754.732 162.846 756.385 162.39 758.235 162.39C760.134 162.39 761.787 162.846 763.193 163.759C764.624 164.672 765.746 165.88 766.56 167.385C767.374 168.865 767.781 170.493 767.781 172.269C767.781 172.466 767.781 172.664 767.781 172.861C767.781 173.034 767.769 173.169 767.744 173.268H751.242C751.365 174.649 751.748 175.883 752.389 176.968C753.055 178.029 753.906 178.88 754.942 179.521C756.003 180.138 757.15 180.446 758.383 180.446C759.641 180.446 760.825 180.125 761.935 179.484C763.07 178.843 763.859 178.004 764.303 176.968L766.486 177.56C766.091 178.473 765.487 179.299 764.673 180.039C763.859 180.779 762.897 181.359 761.787 181.778C760.702 182.173 759.53 182.37 758.272 182.37ZM751.168 171.455H765.413C765.314 170.049 764.932 168.816 764.266 167.755C763.625 166.694 762.774 165.868 761.713 165.276C760.677 164.659 759.53 164.351 758.272 164.351C757.014 164.351 755.867 164.659 754.831 165.276C753.795 165.868 752.944 166.707 752.278 167.792C751.637 168.853 751.267 170.074 751.168 171.455ZM789.307 182.37C787.926 182.37 786.643 182.111 785.459 181.593C784.3 181.05 783.289 180.323 782.425 179.41C781.587 178.473 780.933 177.412 780.464 176.228C779.996 175.019 779.761 173.749 779.761 172.417C779.761 171.036 779.996 169.753 780.464 168.569C780.933 167.36 781.599 166.3 782.462 165.387C783.326 164.45 784.337 163.722 785.496 163.204C786.68 162.661 787.963 162.39 789.344 162.39C790.726 162.39 791.996 162.661 793.155 163.204C794.315 163.722 795.326 164.45 796.189 165.387C797.053 166.3 797.719 167.36 798.187 168.569C798.656 169.753 798.89 171.036 798.89 172.417C798.89 173.749 798.656 175.019 798.187 176.228C797.719 177.412 797.053 178.473 796.189 179.41C795.351 180.323 794.339 181.05 793.155 181.593C791.996 182.111 790.713 182.37 789.307 182.37ZM782.314 172.454C782.314 173.885 782.623 175.192 783.239 176.376C783.881 177.535 784.732 178.46 785.792 179.151C786.853 179.817 788.025 180.15 789.307 180.15C790.59 180.15 791.762 179.805 792.822 179.114C793.883 178.423 794.734 177.486 795.375 176.302C796.017 175.093 796.337 173.786 796.337 172.38C796.337 170.949 796.017 169.642 795.375 168.458C794.734 167.274 793.883 166.337 792.822 165.646C791.762 164.955 790.59 164.61 789.307 164.61C788.025 164.61 786.853 164.968 785.792 165.683C784.756 166.398 783.918 167.348 783.276 168.532C782.635 169.691 782.314 170.999 782.314 172.454ZM812.533 182.37C811.029 182.37 809.635 181.988 808.352 181.223C807.07 180.434 806.071 179.447 805.355 178.263V182H803.098V154.99H805.614V166.756C806.478 165.449 807.514 164.4 808.722 163.611C809.931 162.797 811.337 162.39 812.94 162.39C814.297 162.39 815.506 162.674 816.566 163.241C817.652 163.808 818.577 164.573 819.341 165.535C820.106 166.472 820.686 167.545 821.08 168.754C821.475 169.938 821.672 171.159 821.672 172.417C821.672 173.774 821.438 175.044 820.969 176.228C820.525 177.412 819.884 178.473 819.045 179.41C818.207 180.323 817.232 181.05 816.122 181.593C815.037 182.111 813.841 182.37 812.533 182.37ZM811.941 180.15C812.977 180.15 813.939 179.94 814.827 179.521C815.715 179.102 816.48 178.522 817.121 177.782C817.763 177.042 818.256 176.216 818.601 175.303C818.947 174.366 819.119 173.404 819.119 172.417C819.119 171.06 818.823 169.79 818.231 168.606C817.664 167.397 816.862 166.435 815.826 165.72C814.815 164.98 813.619 164.61 812.237 164.61C811.251 164.61 810.326 164.832 809.462 165.276C808.624 165.72 807.871 166.312 807.205 167.052C806.564 167.767 806.034 168.557 805.614 169.42V175.414C805.713 176.08 805.972 176.709 806.391 177.301C806.811 177.868 807.329 178.362 807.945 178.781C808.587 179.2 809.253 179.533 809.943 179.78C810.634 180.027 811.3 180.15 811.941 180.15ZM831.019 182L823.212 162.723H825.839L832.425 179.484L839.048 162.723H841.527L833.72 182H831.019ZM845.012 182V162.723H847.528V182H845.012ZM845.012 158.69V154.99H847.528V158.69H845.012ZM861.284 182.37C859.903 182.37 858.62 182.111 857.436 181.593C856.277 181.05 855.265 180.323 854.402 179.41C853.563 178.473 852.91 177.412 852.441 176.228C851.972 175.019 851.738 173.749 851.738 172.417C851.738 171.036 851.972 169.753 852.441 168.569C852.91 167.36 853.576 166.3 854.439 165.387C855.302 164.45 856.314 163.722 857.473 163.204C858.657 162.661 859.94 162.39 861.321 162.39C862.702 162.39 863.973 162.661 865.132 163.204C866.291 163.722 867.303 164.45 868.166 165.387C869.029 166.3 869.695 167.36 870.164 168.569C870.633 169.753 870.867 171.036 870.867 172.417C870.867 173.749 870.633 175.019 870.164 176.228C869.695 177.412 869.029 178.473 868.166 179.41C867.327 180.323 866.316 181.05 865.132 181.593C863.973 182.111 862.69 182.37 861.284 182.37ZM854.291 172.454C854.291 173.885 854.599 175.192 855.216 176.376C855.857 177.535 856.708 178.46 857.769 179.151C858.83 179.817 860.001 180.15 861.284 180.15C862.567 180.15 863.738 179.805 864.799 179.114C865.86 178.423 866.711 177.486 867.352 176.302C867.993 175.093 868.314 173.786 868.314 172.38C868.314 170.949 867.993 169.642 867.352 168.458C866.711 167.274 865.86 166.337 864.799 165.646C863.738 164.955 862.567 164.61 861.284 164.61C860.001 164.61 858.83 164.968 857.769 165.683C856.733 166.398 855.894 167.348 855.253 168.532C854.612 169.691 854.291 170.999 854.291 172.454ZM874.89 174.045V162.723H877.406V173.601C877.406 175.796 877.776 177.437 878.516 178.522C879.28 179.607 880.403 180.15 881.883 180.15C882.869 180.15 883.819 179.94 884.732 179.521C885.669 179.077 886.495 178.46 887.211 177.671C887.926 176.857 888.469 175.92 888.839 174.859V162.723H891.355V178.966C891.355 179.311 891.429 179.57 891.577 179.743C891.725 179.891 891.947 179.977 892.243 180.002V182C891.947 182.025 891.712 182.037 891.54 182.037C891.367 182.062 891.207 182.074 891.059 182.074C890.565 182.025 890.134 181.827 889.764 181.482C889.418 181.137 889.233 180.717 889.209 180.224L889.135 177.634C888.296 179.114 887.149 180.273 885.694 181.112C884.263 181.951 882.709 182.37 881.032 182.37C879.009 182.37 877.48 181.667 876.444 180.261C875.408 178.855 874.89 176.783 874.89 174.045ZM903.371 182.37C901.792 182.37 900.324 182.111 898.968 181.593C897.611 181.075 896.439 180.286 895.453 179.225L896.489 177.449C897.574 178.46 898.659 179.2 899.745 179.669C900.855 180.113 902.026 180.335 903.26 180.335C904.764 180.335 905.985 180.039 906.923 179.447C907.86 178.83 908.329 177.955 908.329 176.82C908.329 176.055 908.094 175.476 907.626 175.081C907.182 174.662 906.528 174.329 905.665 174.082C904.826 173.811 903.815 173.527 902.631 173.231C901.299 172.861 900.176 172.479 899.264 172.084C898.376 171.665 897.697 171.147 897.229 170.53C896.785 169.889 896.563 169.062 896.563 168.051C896.563 166.793 896.871 165.757 897.488 164.943C898.129 164.104 898.992 163.475 900.078 163.056C901.188 162.612 902.421 162.39 903.778 162.39C905.258 162.39 906.565 162.624 907.7 163.093C908.834 163.562 909.759 164.215 910.475 165.054L909.254 166.756C908.563 165.967 907.737 165.387 906.775 165.017C905.837 164.622 904.789 164.425 903.63 164.425C902.84 164.425 902.088 164.536 901.373 164.758C900.657 164.955 900.065 165.301 899.597 165.794C899.153 166.263 898.931 166.916 898.931 167.755C898.931 168.446 899.103 168.988 899.449 169.383C899.794 169.753 900.312 170.074 901.003 170.345C901.693 170.592 902.544 170.863 903.556 171.159C905.011 171.554 906.281 171.961 907.367 172.38C908.452 172.775 909.291 173.293 909.883 173.934C910.475 174.575 910.771 175.476 910.771 176.635C910.771 178.436 910.092 179.842 908.736 180.853C907.379 181.864 905.591 182.37 903.371 182.37Z" fill="#F2F2F2" fill-opacity="0.5" shape-rendering="crispEdges"/>
</g>
<line x1="23.996" y1="172.992" x2="526.996" y2="171" stroke="white" stroke-opacity="0.5" stroke-width="2"/>
<defs>
<filter id="filter0_d_145_30" x="571.293" y="154.99" width="343.478" height="43.298" filterUnits="userSpaceOnUse" color-interpolation-filters="sRGB">
<feFlood flood-opacity="0" result="BackgroundImageFix"/>
<feColorMatrix in="SourceAlpha" type="matrix" values="0 0 0 0 0 0 0 0 0 0 0 0 0 0 0 0 0 0 127 0" result="hardAlpha"/>
<feOffset dy="4"/>
<feGaussianBlur stdDeviation="2"/>
<feComposite in2="hardAlpha" operator="out"/>
<feColorMatrix type="matrix" values="0 0 0 0 0 0 0 0 0 0 0 0 0 0 0 0 0 0 0.25 0"/>
<feBlend mode="normal" in2="BackgroundImageFix" result="effect1_dropShadow_145_30"/>
<feBlend mode="normal" in="SourceGraphic" in2="effect1_dropShadow_145_30" result="shape"/>
</filter>
</defs>
</svg>
